<svg width="51" height="52" viewBox="0 0 51 52" fill="none" xmlns="http://www.w3.org/2000/svg">
<g clip-path="url(#clip0_84_693)">
<path d="M41.2888 28.0825C41.3738 27.4025 41.4375 26.7225 41.4375 26C41.4375 25.2775 41.3738 24.5975 41.2888 23.9175L45.7725 20.4112C46.1763 20.0925 46.2825 19.5187 46.0275 19.0512L41.7775 11.6987C41.5863 11.3587 41.225 11.1675 40.8425 11.1675C40.715 11.1675 40.5875 11.1888 40.4813 11.2313L35.19 13.3563C34.085 12.5063 32.895 11.805 31.5988 11.2738L30.7913 5.6425C30.7275 5.1325 30.2813 4.75 29.75 4.75H21.25C20.7188 4.75 20.2725 5.1325 20.2088 5.6425L19.4013 11.2738C18.105 11.805 16.915 12.5275 15.81 13.3563L10.5188 11.2313C10.3913 11.1888 10.2638 11.1675 10.1363 11.1675C9.77503 11.1675 9.41378 11.3587 9.22253 11.6987L4.97252 19.0512C4.69627 19.5187 4.82378 20.0925 5.22753 20.4112L9.71128 23.9175C9.62628 24.5975 9.56253 25.2987 9.56253 26C9.56253 26.7013 9.62628 27.4025 9.71128 28.0825L5.22753 31.5888C4.82378 31.9075 4.71752 32.4813 4.97252 32.9488L9.22253 40.3012C9.41378 40.6412 9.77503 40.8325 10.1575 40.8325C10.285 40.8325 10.4125 40.8113 10.5188 40.7688L15.81 38.6438C16.915 39.4938 18.105 40.195 19.4013 40.7263L20.2088 46.3575C20.2725 46.8675 20.7188 47.25 21.25 47.25H29.75C30.2813 47.25 30.7275 46.8675 30.7913 46.3575L31.5988 40.7263C32.895 40.195 34.085 39.4725 35.19 38.6438L40.4813 40.7688C40.6088 40.8113 40.7363 40.8325 40.8638 40.8325C41.225 40.8325 41.5863 40.6412 41.7775 40.3012L46.0275 32.9488C46.2825 32.4813 46.1763 31.9075 45.7725 31.5888L41.2888 28.0825V28.0825ZM37.0813 24.4488C37.1663 25.1075 37.1875 25.5538 37.1875 26C37.1875 26.4462 37.145 26.9137 37.0813 27.5512L36.7838 29.9525L38.675 31.44L40.97 33.225L39.4825 35.7963L36.7838 34.7125L34.5738 33.82L32.6613 35.265C31.7475 35.945 30.8763 36.455 30.005 36.8163L27.7525 37.73L27.4125 40.1312L26.9875 43H24.0125L23.6088 40.1312L23.2688 37.73L21.0163 36.8163C20.1025 36.4338 19.2525 35.945 18.4025 35.3075L16.4688 33.82L14.2163 34.7338L11.5175 35.8175L10.03 33.2462L12.325 31.4612L14.2163 29.9737L13.9188 27.5725C13.855 26.9137 13.8125 26.425 13.8125 26C13.8125 25.575 13.855 25.0863 13.9188 24.4488L14.2163 22.0475L12.325 20.56L10.03 18.775L11.5175 16.2037L14.2163 17.2875L16.4263 18.18L18.3388 16.735C19.2525 16.055 20.1238 15.545 20.995 15.1837L23.2475 14.27L23.5875 11.8687L24.0125 9H26.9663L27.37 11.8687L27.71 14.27L29.9625 15.1837C30.8763 15.5662 31.7263 16.055 32.5763 16.6925L34.51 18.18L36.7625 17.2662L39.4613 16.1825L40.9488 18.7538L38.675 20.56L36.7838 22.0475L37.0813 24.4488ZM25.5 17.5C20.8038 17.5 17 21.3037 17 26C17 30.6963 20.8038 34.5 25.5 34.5C30.1963 34.5 34 30.6963 34 26C34 21.3037 30.1963 17.5 25.5 17.5ZM25.5 30.25C23.1625 30.25 21.25 28.3375 21.25 26C21.25 23.6625 23.1625 21.75 25.5 21.75C27.8375 21.75 29.75 23.6625 29.75 26C29.75 28.3375 27.8375 30.25 25.5 30.25Z" fill="#2B598F"/>
</g>
<defs>
<clipPath id="clip0_84_693">
<rect width="51" height="51" fill="white" transform="translate(0 0.5)"/>
</clipPath>
</defs>
</svg>
