<svg width="238" height="82" viewBox="0 0 238 82" fill="none" xmlns="http://www.w3.org/2000/svg">
<mask id="path-1-outside-1_63_1254" maskUnits="userSpaceOnUse" x="9" y="18.5" width="220" height="44" fill="black">
<rect fill="white" x="9" y="18.5" width="220" height="44"/>
<path d="M32.8871 33.5945C32.745 32.1622 32.1354 31.0495 31.0582 30.2564C29.9811 29.4633 28.5192 29.0668 26.6726 29.0668C25.4179 29.0668 24.3584 29.2443 23.4943 29.5994C22.6302 29.9427 21.9673 30.4221 21.5057 31.0376C21.0559 31.6532 20.831 32.3516 20.831 33.1328C20.8073 33.7839 20.9434 34.352 21.2393 34.8374C21.5471 35.3227 21.9673 35.7429 22.5 36.098C23.0327 36.4413 23.6482 36.7431 24.3466 37.0036C25.045 37.2521 25.7907 37.4652 26.5838 37.6428L29.8509 38.424C31.437 38.7791 32.893 39.2526 34.2188 39.8445C35.5445 40.4363 36.6927 41.1643 37.6634 42.0284C38.634 42.8925 39.3857 43.9105 39.9183 45.0824C40.4628 46.2543 40.741 47.5978 40.7528 49.1129C40.741 51.3383 40.1728 53.2678 39.0483 54.9013C37.9356 56.523 36.3258 57.7836 34.2188 58.6832C32.1236 59.571 29.5964 60.0149 26.6371 60.0149C23.7015 60.0149 21.1446 59.5651 18.9666 58.6655C16.8004 57.7659 15.1077 56.4342 13.8885 54.6705C12.6811 52.8949 12.0478 50.6991 11.9886 48.0831H19.4283C19.5111 49.3023 19.8603 50.3203 20.4759 51.1371C21.1032 51.942 21.9377 52.5516 22.9794 52.9659C24.0329 53.3684 25.2225 53.5696 26.5483 53.5696C27.8504 53.5696 28.9808 53.3802 29.9396 53.0014C30.9103 52.6226 31.6619 52.0959 32.1946 51.4212C32.7273 50.7464 32.9936 49.9711 32.9936 49.0952C32.9936 48.2784 32.7509 47.5919 32.2656 47.0355C31.7921 46.4792 31.0938 46.0057 30.1705 45.6151C29.259 45.2244 28.1404 44.8693 26.8146 44.5497L22.8551 43.5554C19.7893 42.8097 17.3686 41.6437 15.593 40.0575C13.8175 38.4714 12.9356 36.3348 12.9474 33.6477C12.9356 31.446 13.5215 29.5225 14.7053 27.8771C15.9008 26.2318 17.5402 24.9474 19.6236 24.0241C21.7069 23.1009 24.0743 22.6392 26.7259 22.6392C29.4247 22.6392 31.7803 23.1009 33.7926 24.0241C35.8168 24.9474 37.3911 26.2318 38.5156 27.8771C39.6402 29.5225 40.2202 31.4283 40.2557 33.5945H32.8871ZM52.5591 60.0149C50.8191 60.0149 49.2684 59.7131 47.9071 59.1094C46.5459 58.4938 45.4687 57.5883 44.6756 56.3928C43.8944 55.1854 43.5037 53.6821 43.5037 51.8828C43.5037 50.3677 43.7819 49.0952 44.3382 48.0653C44.8946 47.0355 45.6522 46.2069 46.611 45.5795C47.5698 44.9522 48.6588 44.4787 49.878 44.1591C51.1091 43.8395 52.3993 43.6146 53.7488 43.4844C55.3349 43.3187 56.6133 43.1648 57.584 43.0227C58.5546 42.8688 59.2589 42.6439 59.6969 42.348C60.1349 42.0521 60.3539 41.6141 60.3539 41.0341V40.9276C60.3539 39.803 59.9988 38.933 59.2885 38.3175C58.5901 37.7019 57.5958 37.3942 56.3056 37.3942C54.9443 37.3942 53.8612 37.696 53.0563 38.2997C52.2514 38.8916 51.7187 39.6373 51.4583 40.5369L44.4625 39.9688C44.8176 38.3116 45.516 36.8793 46.5577 35.6719C47.5994 34.4527 48.9429 33.5175 50.5882 32.8665C52.2454 32.2036 54.1631 31.8722 56.3411 31.8722C57.8562 31.8722 59.3063 32.0497 60.6912 32.4048C62.088 32.7599 63.325 33.3104 64.4022 34.0561C65.4912 34.8018 66.3494 35.7607 66.9767 36.9325C67.6041 38.0926 67.9178 39.4834 67.9178 41.1051V59.5H60.7445V55.718H60.5314C60.0935 56.5703 59.5075 57.322 58.7736 57.973C58.0397 58.6122 57.1578 59.1153 56.128 59.4822C55.0982 59.8374 53.9086 60.0149 52.5591 60.0149ZM54.7253 54.7947C55.838 54.7947 56.8205 54.5758 57.6728 54.1378C58.525 53.688 59.1938 53.0843 59.6792 52.3267C60.1645 51.5691 60.4071 50.7109 60.4071 49.7521V46.858C60.1704 47.0118 59.8449 47.1539 59.4306 47.2841C59.0281 47.4025 58.5724 47.5149 58.0634 47.6214C57.5544 47.7161 57.0454 47.8049 56.5364 47.8878C56.0274 47.9588 55.5658 48.0239 55.1515 48.0831C54.2637 48.2133 53.4883 48.4205 52.8255 48.7045C52.1626 48.9886 51.6477 49.3733 51.2807 49.8587C50.9138 50.3321 50.7303 50.924 50.7303 51.6342C50.7303 52.6641 51.1032 53.4512 51.8489 53.9957C52.6065 54.5284 53.5653 54.7947 54.7253 54.7947ZM87.4522 32.2273V37.9091H70.6199V32.2273H87.4522ZM74.4728 59.5V30.2564C74.4728 28.2796 74.8575 26.6401 75.627 25.3381C76.4082 24.036 77.4735 23.0594 78.823 22.4084C80.1724 21.7573 81.7053 21.4318 83.4217 21.4318C84.5817 21.4318 85.6412 21.5206 86.6 21.6982C87.5706 21.8757 88.2927 22.0355 88.7662 22.1776L87.4167 27.8594C87.1208 27.7647 86.7538 27.6759 86.3159 27.593C85.8897 27.5102 85.4518 27.4688 85.002 27.4688C83.8893 27.4688 83.1139 27.7292 82.676 28.25C82.238 28.759 82.019 29.4751 82.019 30.3984V59.5H74.4728ZM102.526 60.0327C99.7202 60.0327 97.3054 59.4645 95.2812 58.3281C93.2689 57.1799 91.7183 55.5582 90.6293 53.4631C89.5402 51.3561 88.9957 48.8643 88.9957 45.9879C88.9957 43.1825 89.5402 40.7204 90.6293 38.6016C91.7183 36.4827 93.2512 34.8314 95.228 33.6477C97.2166 32.464 99.5485 31.8722 102.224 31.8722C104.023 31.8722 105.698 32.1622 107.249 32.7422C108.811 33.3104 110.172 34.1686 111.332 35.3168C112.504 36.465 113.416 37.9091 114.067 39.6491C114.718 41.3774 115.043 43.4015 115.043 45.7216V47.799H92.0142V43.1115H107.923C107.923 42.0225 107.687 41.0578 107.213 40.2173C106.74 39.3769 106.083 38.7199 105.242 38.2464C104.414 37.7611 103.449 37.5185 102.348 37.5185C101.2 37.5185 100.182 37.7848 99.294 38.3175C98.4181 38.8383 97.7315 39.5426 97.2344 40.4304C96.7372 41.3063 96.4827 42.2829 96.4709 43.3601V47.8168C96.4709 49.1662 96.7195 50.3321 97.2166 51.3146C97.7256 52.2971 98.4418 53.0547 99.3651 53.5874C100.288 54.12 101.383 54.3864 102.65 54.3864C103.49 54.3864 104.26 54.268 104.958 54.0312C105.656 53.7945 106.254 53.4394 106.751 52.9659C107.249 52.4924 107.627 51.9124 107.888 51.2259L114.884 51.6875C114.528 53.3684 113.8 54.8362 112.7 56.0909C111.611 57.3338 110.202 58.3045 108.474 59.0028C106.757 59.6894 104.775 60.0327 102.526 60.0327Z"/>
<path d="M149.537 23.1364V59.5H142.896L127.076 36.6129H126.81V59.5H119.121V23.1364H125.869L141.565 46.0057H141.884V23.1364H149.537ZM167.176 60.0327C164.371 60.0327 161.956 59.4645 159.932 58.3281C157.919 57.1799 156.369 55.5582 155.28 53.4631C154.191 51.3561 153.646 48.8643 153.646 45.9879C153.646 43.1825 154.191 40.7204 155.28 38.6016C156.369 36.4827 157.902 34.8314 159.878 33.6477C161.867 32.464 164.199 31.8722 166.874 31.8722C168.673 31.8722 170.348 32.1622 171.899 32.7422C173.461 33.3104 174.823 34.1686 175.983 35.3168C177.155 36.465 178.066 37.9091 178.717 39.6491C179.368 41.3774 179.694 43.4015 179.694 45.7216V47.799H156.665V43.1115H172.574C172.574 42.0225 172.337 41.0578 171.863 40.2173C171.39 39.3769 170.733 38.7199 169.893 38.2464C169.064 37.7611 168.099 37.5185 166.998 37.5185C165.85 37.5185 164.832 37.7848 163.944 38.3175C163.068 38.8383 162.382 39.5426 161.885 40.4304C161.388 41.3063 161.133 42.2829 161.121 43.3601V47.8168C161.121 49.1662 161.37 50.3321 161.867 51.3146C162.376 52.2971 163.092 53.0547 164.015 53.5874C164.939 54.12 166.034 54.3864 167.3 54.3864C168.141 54.3864 168.91 54.268 169.608 54.0312C170.307 53.7945 170.905 53.4394 171.402 52.9659C171.899 52.4924 172.278 51.9124 172.538 51.2259L179.534 51.6875C179.179 53.3684 178.451 54.8362 177.35 56.0909C176.261 57.3338 174.852 58.3045 173.124 59.0028C171.408 59.6894 169.425 60.0327 167.176 60.0327ZM206.322 40.0043L199.397 40.4304C199.278 39.8385 199.024 39.3059 198.633 38.8324C198.243 38.3471 197.728 37.9624 197.089 37.6783C196.461 37.3823 195.71 37.2344 194.834 37.2344C193.662 37.2344 192.673 37.483 191.868 37.9801C191.064 38.4654 190.661 39.1165 190.661 39.9332C190.661 40.5843 190.921 41.1347 191.442 41.5845C191.963 42.0343 192.857 42.3954 194.123 42.6676L199.059 43.6619C201.711 44.2064 203.688 45.0824 204.99 46.2898C206.292 47.4972 206.943 49.0833 206.943 51.0483C206.943 52.8357 206.416 54.4041 205.363 55.7536C204.321 57.103 202.889 58.1565 201.066 58.9141C199.255 59.6598 197.166 60.0327 194.798 60.0327C191.188 60.0327 188.311 59.281 186.169 57.7777C184.038 56.2625 182.789 54.2029 182.422 51.5987L189.862 51.2081C190.087 52.3089 190.631 53.1494 191.496 53.7294C192.36 54.2976 193.466 54.5817 194.816 54.5817C196.142 54.5817 197.207 54.3272 198.012 53.8182C198.829 53.2973 199.243 52.6286 199.255 51.8118C199.243 51.1252 198.953 50.563 198.385 50.125C197.817 49.6752 196.941 49.3319 195.757 49.0952L191.034 48.1541C188.371 47.6214 186.388 46.6982 185.086 45.3842C183.796 44.0703 183.15 42.3954 183.15 40.3594C183.15 38.6075 183.624 37.0982 184.571 35.8317C185.53 34.5651 186.873 33.5885 188.601 32.902C190.341 32.2154 192.377 31.8722 194.709 31.8722C198.154 31.8722 200.865 32.6001 202.841 34.0561C204.83 35.5121 205.99 37.4948 206.322 40.0043ZM225.212 32.2273V37.9091H208.788V32.2273H225.212ZM212.517 25.6932H220.081V51.1193C220.081 51.8177 220.188 52.3622 220.401 52.7528C220.614 53.1316 220.91 53.398 221.288 53.5518C221.679 53.7057 222.129 53.7827 222.638 53.7827C222.993 53.7827 223.348 53.7531 223.703 53.6939C224.058 53.6229 224.33 53.5696 224.52 53.5341L225.71 59.1626C225.331 59.281 224.798 59.4171 224.112 59.571C223.425 59.7367 222.59 59.8374 221.608 59.8729C219.785 59.9439 218.187 59.7012 216.814 59.1449C215.453 58.5885 214.393 57.7244 213.636 56.5526C212.878 55.3807 212.505 53.901 212.517 52.1136V25.6932Z"/>
</mask>
<path d="M32.8871 33.5945C32.745 32.1622 32.1354 31.0495 31.0582 30.2564C29.9811 29.4633 28.5192 29.0668 26.6726 29.0668C25.4179 29.0668 24.3584 29.2443 23.4943 29.5994C22.6302 29.9427 21.9673 30.4221 21.5057 31.0376C21.0559 31.6532 20.831 32.3516 20.831 33.1328C20.8073 33.7839 20.9434 34.352 21.2393 34.8374C21.5471 35.3227 21.9673 35.7429 22.5 36.098C23.0327 36.4413 23.6482 36.7431 24.3466 37.0036C25.045 37.2521 25.7907 37.4652 26.5838 37.6428L29.8509 38.424C31.437 38.7791 32.893 39.2526 34.2188 39.8445C35.5445 40.4363 36.6927 41.1643 37.6634 42.0284C38.634 42.8925 39.3857 43.9105 39.9183 45.0824C40.4628 46.2543 40.741 47.5978 40.7528 49.1129C40.741 51.3383 40.1728 53.2678 39.0483 54.9013C37.9356 56.523 36.3258 57.7836 34.2188 58.6832C32.1236 59.571 29.5964 60.0149 26.6371 60.0149C23.7015 60.0149 21.1446 59.5651 18.9666 58.6655C16.8004 57.7659 15.1077 56.4342 13.8885 54.6705C12.6811 52.8949 12.0478 50.6991 11.9886 48.0831H19.4283C19.5111 49.3023 19.8603 50.3203 20.4759 51.1371C21.1032 51.942 21.9377 52.5516 22.9794 52.9659C24.0329 53.3684 25.2225 53.5696 26.5483 53.5696C27.8504 53.5696 28.9808 53.3802 29.9396 53.0014C30.9103 52.6226 31.6619 52.0959 32.1946 51.4212C32.7273 50.7464 32.9936 49.9711 32.9936 49.0952C32.9936 48.2784 32.7509 47.5919 32.2656 47.0355C31.7921 46.4792 31.0938 46.0057 30.1705 45.6151C29.259 45.2244 28.1404 44.8693 26.8146 44.5497L22.8551 43.5554C19.7893 42.8097 17.3686 41.6437 15.593 40.0575C13.8175 38.4714 12.9356 36.3348 12.9474 33.6477C12.9356 31.446 13.5215 29.5225 14.7053 27.8771C15.9008 26.2318 17.5402 24.9474 19.6236 24.0241C21.7069 23.1009 24.0743 22.6392 26.7259 22.6392C29.4247 22.6392 31.7803 23.1009 33.7926 24.0241C35.8168 24.9474 37.3911 26.2318 38.5156 27.8771C39.6402 29.5225 40.2202 31.4283 40.2557 33.5945H32.8871ZM52.5591 60.0149C50.8191 60.0149 49.2684 59.7131 47.9071 59.1094C46.5459 58.4938 45.4687 57.5883 44.6756 56.3928C43.8944 55.1854 43.5037 53.6821 43.5037 51.8828C43.5037 50.3677 43.7819 49.0952 44.3382 48.0653C44.8946 47.0355 45.6522 46.2069 46.611 45.5795C47.5698 44.9522 48.6588 44.4787 49.878 44.1591C51.1091 43.8395 52.3993 43.6146 53.7488 43.4844C55.3349 43.3187 56.6133 43.1648 57.584 43.0227C58.5546 42.8688 59.2589 42.6439 59.6969 42.348C60.1349 42.0521 60.3539 41.6141 60.3539 41.0341V40.9276C60.3539 39.803 59.9988 38.933 59.2885 38.3175C58.5901 37.7019 57.5958 37.3942 56.3056 37.3942C54.9443 37.3942 53.8612 37.696 53.0563 38.2997C52.2514 38.8916 51.7187 39.6373 51.4583 40.5369L44.4625 39.9688C44.8176 38.3116 45.516 36.8793 46.5577 35.6719C47.5994 34.4527 48.9429 33.5175 50.5882 32.8665C52.2454 32.2036 54.1631 31.8722 56.3411 31.8722C57.8562 31.8722 59.3063 32.0497 60.6912 32.4048C62.088 32.7599 63.325 33.3104 64.4022 34.0561C65.4912 34.8018 66.3494 35.7607 66.9767 36.9325C67.6041 38.0926 67.9178 39.4834 67.9178 41.1051V59.5H60.7445V55.718H60.5314C60.0935 56.5703 59.5075 57.322 58.7736 57.973C58.0397 58.6122 57.1578 59.1153 56.128 59.4822C55.0982 59.8374 53.9086 60.0149 52.5591 60.0149ZM54.7253 54.7947C55.838 54.7947 56.8205 54.5758 57.6728 54.1378C58.525 53.688 59.1938 53.0843 59.6792 52.3267C60.1645 51.5691 60.4071 50.7109 60.4071 49.7521V46.858C60.1704 47.0118 59.8449 47.1539 59.4306 47.2841C59.0281 47.4025 58.5724 47.5149 58.0634 47.6214C57.5544 47.7161 57.0454 47.8049 56.5364 47.8878C56.0274 47.9588 55.5658 48.0239 55.1515 48.0831C54.2637 48.2133 53.4883 48.4205 52.8255 48.7045C52.1626 48.9886 51.6477 49.3733 51.2807 49.8587C50.9138 50.3321 50.7303 50.924 50.7303 51.6342C50.7303 52.6641 51.1032 53.4512 51.8489 53.9957C52.6065 54.5284 53.5653 54.7947 54.7253 54.7947ZM87.4522 32.2273V37.9091H70.6199V32.2273H87.4522ZM74.4728 59.5V30.2564C74.4728 28.2796 74.8575 26.6401 75.627 25.3381C76.4082 24.036 77.4735 23.0594 78.823 22.4084C80.1724 21.7573 81.7053 21.4318 83.4217 21.4318C84.5817 21.4318 85.6412 21.5206 86.6 21.6982C87.5706 21.8757 88.2927 22.0355 88.7662 22.1776L87.4167 27.8594C87.1208 27.7647 86.7538 27.6759 86.3159 27.593C85.8897 27.5102 85.4518 27.4688 85.002 27.4688C83.8893 27.4688 83.1139 27.7292 82.676 28.25C82.238 28.759 82.019 29.4751 82.019 30.3984V59.5H74.4728ZM102.526 60.0327C99.7202 60.0327 97.3054 59.4645 95.2812 58.3281C93.2689 57.1799 91.7183 55.5582 90.6293 53.4631C89.5402 51.3561 88.9957 48.8643 88.9957 45.9879C88.9957 43.1825 89.5402 40.7204 90.6293 38.6016C91.7183 36.4827 93.2512 34.8314 95.228 33.6477C97.2166 32.464 99.5485 31.8722 102.224 31.8722C104.023 31.8722 105.698 32.1622 107.249 32.7422C108.811 33.3104 110.172 34.1686 111.332 35.3168C112.504 36.465 113.416 37.9091 114.067 39.6491C114.718 41.3774 115.043 43.4015 115.043 45.7216V47.799H92.0142V43.1115H107.923C107.923 42.0225 107.687 41.0578 107.213 40.2173C106.74 39.3769 106.083 38.7199 105.242 38.2464C104.414 37.7611 103.449 37.5185 102.348 37.5185C101.2 37.5185 100.182 37.7848 99.294 38.3175C98.4181 38.8383 97.7315 39.5426 97.2344 40.4304C96.7372 41.3063 96.4827 42.2829 96.4709 43.3601V47.8168C96.4709 49.1662 96.7195 50.3321 97.2166 51.3146C97.7256 52.2971 98.4418 53.0547 99.3651 53.5874C100.288 54.12 101.383 54.3864 102.65 54.3864C103.49 54.3864 104.26 54.268 104.958 54.0312C105.656 53.7945 106.254 53.4394 106.751 52.9659C107.249 52.4924 107.627 51.9124 107.888 51.2259L114.884 51.6875C114.528 53.3684 113.8 54.8362 112.7 56.0909C111.611 57.3338 110.202 58.3045 108.474 59.0028C106.757 59.6894 104.775 60.0327 102.526 60.0327Z" fill="#DAEAFC"/>
<path d="M32.8871 33.5945C32.745 32.1622 32.1354 31.0495 31.0582 30.2564C29.9811 29.4633 28.5192 29.0668 26.6726 29.0668C25.4179 29.0668 24.3584 29.2443 23.4943 29.5994C22.6302 29.9427 21.9673 30.4221 21.5057 31.0376C21.0559 31.6532 20.831 32.3516 20.831 33.1328C20.8073 33.7839 20.9434 34.352 21.2393 34.8374C21.5471 35.3227 21.9673 35.7429 22.5 36.098C23.0327 36.4413 23.6482 36.7431 24.3466 37.0036C25.045 37.2521 25.7907 37.4652 26.5838 37.6428L29.8509 38.424C31.437 38.7791 32.893 39.2526 34.2188 39.8445C35.5445 40.4363 36.6927 41.1643 37.6634 42.0284C38.634 42.8925 39.3857 43.9105 39.9183 45.0824C40.4628 46.2543 40.741 47.5978 40.7528 49.1129C40.741 51.3383 40.1728 53.2678 39.0483 54.9013C37.9356 56.523 36.3258 57.7836 34.2188 58.6832C32.1236 59.571 29.5964 60.0149 26.6371 60.0149C23.7015 60.0149 21.1446 59.5651 18.9666 58.6655C16.8004 57.7659 15.1077 56.4342 13.8885 54.6705C12.6811 52.8949 12.0478 50.6991 11.9886 48.0831H19.4283C19.5111 49.3023 19.8603 50.3203 20.4759 51.1371C21.1032 51.942 21.9377 52.5516 22.9794 52.9659C24.0329 53.3684 25.2225 53.5696 26.5483 53.5696C27.8504 53.5696 28.9808 53.3802 29.9396 53.0014C30.9103 52.6226 31.6619 52.0959 32.1946 51.4212C32.7273 50.7464 32.9936 49.9711 32.9936 49.0952C32.9936 48.2784 32.7509 47.5919 32.2656 47.0355C31.7921 46.4792 31.0938 46.0057 30.1705 45.6151C29.259 45.2244 28.1404 44.8693 26.8146 44.5497L22.8551 43.5554C19.7893 42.8097 17.3686 41.6437 15.593 40.0575C13.8175 38.4714 12.9356 36.3348 12.9474 33.6477C12.9356 31.446 13.5215 29.5225 14.7053 27.8771C15.9008 26.2318 17.5402 24.9474 19.6236 24.0241C21.7069 23.1009 24.0743 22.6392 26.7259 22.6392C29.4247 22.6392 31.7803 23.1009 33.7926 24.0241C35.8168 24.9474 37.3911 26.2318 38.5156 27.8771C39.6402 29.5225 40.2202 31.4283 40.2557 33.5945H32.8871ZM52.5591 60.0149C50.8191 60.0149 49.2684 59.7131 47.9071 59.1094C46.5459 58.4938 45.4687 57.5883 44.6756 56.3928C43.8944 55.1854 43.5037 53.6821 43.5037 51.8828C43.5037 50.3677 43.7819 49.0952 44.3382 48.0653C44.8946 47.0355 45.6522 46.2069 46.611 45.5795C47.5698 44.9522 48.6588 44.4787 49.878 44.1591C51.1091 43.8395 52.3993 43.6146 53.7488 43.4844C55.3349 43.3187 56.6133 43.1648 57.584 43.0227C58.5546 42.8688 59.2589 42.6439 59.6969 42.348C60.1349 42.0521 60.3539 41.6141 60.3539 41.0341V40.9276C60.3539 39.803 59.9988 38.933 59.2885 38.3175C58.5901 37.7019 57.5958 37.3942 56.3056 37.3942C54.9443 37.3942 53.8612 37.696 53.0563 38.2997C52.2514 38.8916 51.7187 39.6373 51.4583 40.5369L44.4625 39.9688C44.8176 38.3116 45.516 36.8793 46.5577 35.6719C47.5994 34.4527 48.9429 33.5175 50.5882 32.8665C52.2454 32.2036 54.1631 31.8722 56.3411 31.8722C57.8562 31.8722 59.3063 32.0497 60.6912 32.4048C62.088 32.7599 63.325 33.3104 64.4022 34.0561C65.4912 34.8018 66.3494 35.7607 66.9767 36.9325C67.6041 38.0926 67.9178 39.4834 67.9178 41.1051V59.5H60.7445V55.718H60.5314C60.0935 56.5703 59.5075 57.322 58.7736 57.973C58.0397 58.6122 57.1578 59.1153 56.128 59.4822C55.0982 59.8374 53.9086 60.0149 52.5591 60.0149ZM54.7253 54.7947C55.838 54.7947 56.8205 54.5758 57.6728 54.1378C58.525 53.688 59.1938 53.0843 59.6792 52.3267C60.1645 51.5691 60.4071 50.7109 60.4071 49.7521V46.858C60.1704 47.0118 59.8449 47.1539 59.4306 47.2841C59.0281 47.4025 58.5724 47.5149 58.0634 47.6214C57.5544 47.7161 57.0454 47.8049 56.5364 47.8878C56.0274 47.9588 55.5658 48.0239 55.1515 48.0831C54.2637 48.2133 53.4883 48.4205 52.8255 48.7045C52.1626 48.9886 51.6477 49.3733 51.2807 49.8587C50.9138 50.3321 50.7303 50.924 50.7303 51.6342C50.7303 52.6641 51.1032 53.4512 51.8489 53.9957C52.6065 54.5284 53.5653 54.7947 54.7253 54.7947ZM87.4522 32.2273V37.9091H70.6199V32.2273H87.4522ZM74.4728 59.5V30.2564C74.4728 28.2796 74.8575 26.6401 75.627 25.3381C76.4082 24.036 77.4735 23.0594 78.823 22.4084C80.1724 21.7573 81.7053 21.4318 83.4217 21.4318C84.5817 21.4318 85.6412 21.5206 86.6 21.6982C87.5706 21.8757 88.2927 22.0355 88.7662 22.1776L87.4167 27.8594C87.1208 27.7647 86.7538 27.6759 86.3159 27.593C85.8897 27.5102 85.4518 27.4688 85.002 27.4688C83.8893 27.4688 83.1139 27.7292 82.676 28.25C82.238 28.759 82.019 29.4751 82.019 30.3984V59.5H74.4728ZM102.526 60.0327C99.7202 60.0327 97.3054 59.4645 95.2812 58.3281C93.2689 57.1799 91.7183 55.5582 90.6293 53.4631C89.5402 51.3561 88.9957 48.8643 88.9957 45.9879C88.9957 43.1825 89.5402 40.7204 90.6293 38.6016C91.7183 36.4827 93.2512 34.8314 95.228 33.6477C97.2166 32.464 99.5485 31.8722 102.224 31.8722C104.023 31.8722 105.698 32.1622 107.249 32.7422C108.811 33.3104 110.172 34.1686 111.332 35.3168C112.504 36.465 113.416 37.9091 114.067 39.6491C114.718 41.3774 115.043 43.4015 115.043 45.7216V47.799H92.0142V43.1115H107.923C107.923 42.0225 107.687 41.0578 107.213 40.2173C106.74 39.3769 106.083 38.7199 105.242 38.2464C104.414 37.7611 103.449 37.5185 102.348 37.5185C101.2 37.5185 100.182 37.7848 99.294 38.3175C98.4181 38.8383 97.7315 39.5426 97.2344 40.4304C96.7372 41.3063 96.4827 42.2829 96.4709 43.3601V47.8168C96.4709 49.1662 96.7195 50.3321 97.2166 51.3146C97.7256 52.2971 98.4418 53.0547 99.3651 53.5874C100.288 54.12 101.383 54.3864 102.65 54.3864C103.49 54.3864 104.26 54.268 104.958 54.0312C105.656 53.7945 106.254 53.4394 106.751 52.9659C107.249 52.4924 107.627 51.9124 107.888 51.2259L114.884 51.6875C114.528 53.3684 113.8 54.8362 112.7 56.0909C111.611 57.3338 110.202 58.3045 108.474 59.0028C106.757 59.6894 104.775 60.0327 102.526 60.0327Z" fill="#5AA0F1"/>
<path d="M149.537 23.1364V59.5H142.896L127.076 36.6129H126.81V59.5H119.121V23.1364H125.869L141.565 46.0057H141.884V23.1364H149.537ZM167.176 60.0327C164.371 60.0327 161.956 59.4645 159.932 58.3281C157.919 57.1799 156.369 55.5582 155.28 53.4631C154.191 51.3561 153.646 48.8643 153.646 45.9879C153.646 43.1825 154.191 40.7204 155.28 38.6016C156.369 36.4827 157.902 34.8314 159.878 33.6477C161.867 32.464 164.199 31.8722 166.874 31.8722C168.673 31.8722 170.348 32.1622 171.899 32.7422C173.461 33.3104 174.823 34.1686 175.983 35.3168C177.155 36.465 178.066 37.9091 178.717 39.6491C179.368 41.3774 179.694 43.4015 179.694 45.7216V47.799H156.665V43.1115H172.574C172.574 42.0225 172.337 41.0578 171.863 40.2173C171.39 39.3769 170.733 38.7199 169.893 38.2464C169.064 37.7611 168.099 37.5185 166.998 37.5185C165.85 37.5185 164.832 37.7848 163.944 38.3175C163.068 38.8383 162.382 39.5426 161.885 40.4304C161.388 41.3063 161.133 42.2829 161.121 43.3601V47.8168C161.121 49.1662 161.37 50.3321 161.867 51.3146C162.376 52.2971 163.092 53.0547 164.015 53.5874C164.939 54.12 166.034 54.3864 167.3 54.3864C168.141 54.3864 168.91 54.268 169.608 54.0312C170.307 53.7945 170.905 53.4394 171.402 52.9659C171.899 52.4924 172.278 51.9124 172.538 51.2259L179.534 51.6875C179.179 53.3684 178.451 54.8362 177.35 56.0909C176.261 57.3338 174.852 58.3045 173.124 59.0028C171.408 59.6894 169.425 60.0327 167.176 60.0327ZM206.322 40.0043L199.397 40.4304C199.278 39.8385 199.024 39.3059 198.633 38.8324C198.243 38.3471 197.728 37.9624 197.089 37.6783C196.461 37.3823 195.71 37.2344 194.834 37.2344C193.662 37.2344 192.673 37.483 191.868 37.9801C191.064 38.4654 190.661 39.1165 190.661 39.9332C190.661 40.5843 190.921 41.1347 191.442 41.5845C191.963 42.0343 192.857 42.3954 194.123 42.6676L199.059 43.6619C201.711 44.2064 203.688 45.0824 204.99 46.2898C206.292 47.4972 206.943 49.0833 206.943 51.0483C206.943 52.8357 206.416 54.4041 205.363 55.7536C204.321 57.103 202.889 58.1565 201.066 58.9141C199.255 59.6598 197.166 60.0327 194.798 60.0327C191.188 60.0327 188.311 59.281 186.169 57.7777C184.038 56.2625 182.789 54.2029 182.422 51.5987L189.862 51.2081C190.087 52.3089 190.631 53.1494 191.496 53.7294C192.36 54.2976 193.466 54.5817 194.816 54.5817C196.142 54.5817 197.207 54.3272 198.012 53.8182C198.829 53.2973 199.243 52.6286 199.255 51.8118C199.243 51.1252 198.953 50.563 198.385 50.125C197.817 49.6752 196.941 49.3319 195.757 49.0952L191.034 48.1541C188.371 47.6214 186.388 46.6982 185.086 45.3842C183.796 44.0703 183.15 42.3954 183.15 40.3594C183.15 38.6075 183.624 37.0982 184.571 35.8317C185.53 34.5651 186.873 33.5885 188.601 32.902C190.341 32.2154 192.377 31.8722 194.709 31.8722C198.154 31.8722 200.865 32.6001 202.841 34.0561C204.83 35.5121 205.99 37.4948 206.322 40.0043ZM225.212 32.2273V37.9091H208.788V32.2273H225.212ZM212.517 25.6932H220.081V51.1193C220.081 51.8177 220.188 52.3622 220.401 52.7528C220.614 53.1316 220.91 53.398 221.288 53.5518C221.679 53.7057 222.129 53.7827 222.638 53.7827C222.993 53.7827 223.348 53.7531 223.703 53.6939C224.058 53.6229 224.33 53.5696 224.52 53.5341L225.71 59.1626C225.331 59.281 224.798 59.4171 224.112 59.571C223.425 59.7367 222.59 59.8374 221.608 59.8729C219.785 59.9439 218.187 59.7012 216.814 59.1449C215.453 58.5885 214.393 57.7244 213.636 56.5526C212.878 55.3807 212.505 53.901 212.517 52.1136V25.6932Z" fill="#FA86A3"/>
<path d="M32.8871 33.5945L30.8968 33.7918L31.0756 35.5945H32.8871V33.5945ZM23.4943 29.5994L24.2327 31.4581L24.2437 31.4538L24.2545 31.4493L23.4943 29.5994ZM21.5057 31.0376L19.9057 29.8376L19.8982 29.8476L19.8909 29.8576L21.5057 31.0376ZM20.831 33.1328L22.8296 33.2055L22.831 33.1692V33.1328H20.831ZM21.2393 34.8374L19.5318 35.8786L19.5409 35.8936L19.5503 35.9084L21.2393 34.8374ZM22.5 36.098L21.3906 37.7621L21.4035 37.7707L21.4166 37.7792L22.5 36.098ZM24.3466 37.0036L23.6478 38.8775L23.6618 38.8827L23.6759 38.8878L24.3466 37.0036ZM26.5838 37.6428L27.049 35.6976L27.0349 35.6942L27.0208 35.6911L26.5838 37.6428ZM29.8509 38.424L29.3857 40.3692L29.3998 40.3725L29.4139 40.3757L29.8509 38.424ZM34.2188 39.8445L33.4034 41.6707L33.4034 41.6707L34.2188 39.8445ZM37.6634 42.0284L38.9932 40.5346L38.9932 40.5346L37.6634 42.0284ZM39.9183 45.0824L38.0976 45.91L38.101 45.9176L38.1046 45.9251L39.9183 45.0824ZM40.7528 49.1129L42.7528 49.1236L42.7529 49.1104L42.7528 49.0973L40.7528 49.1129ZM39.0483 54.9013L37.4009 53.7672L37.3992 53.7698L39.0483 54.9013ZM34.2188 58.6832L34.9991 60.5247L35.0041 60.5226L34.2188 58.6832ZM18.9666 58.6655L18.1995 60.5125L18.2031 60.514L18.9666 58.6655ZM13.8885 54.6705L12.2346 55.7951L12.239 55.8014L12.2433 55.8077L13.8885 54.6705ZM11.9886 48.0831V46.0831H9.94288L9.98915 48.1283L11.9886 48.0831ZM19.4283 48.0831L21.4237 47.9475L21.297 46.0831H19.4283V48.0831ZM20.4759 51.1371L18.8786 52.3408L18.8884 52.3537L18.8984 52.3666L20.4759 51.1371ZM22.9794 52.9659L22.2403 54.8243L22.2529 54.8294L22.2657 54.8342L22.9794 52.9659ZM29.9396 53.0014L29.2125 51.1382L29.2048 51.1413L29.9396 53.0014ZM32.1946 51.4212L33.7644 52.6605L33.7644 52.6605L32.1946 51.4212ZM32.2656 47.0355L30.7425 48.3317L30.7505 48.341L30.7585 48.3502L32.2656 47.0355ZM30.1705 45.6151L29.3826 47.4534L29.3912 47.457L30.1705 45.6151ZM26.8146 44.5497L26.3275 46.4895L26.3367 46.4918L26.3459 46.494L26.8146 44.5497ZM22.8551 43.5554L23.3422 41.6156L23.335 41.6138L23.3278 41.6121L22.8551 43.5554ZM15.593 40.0575L14.2606 41.5491L14.2606 41.5491L15.593 40.0575ZM12.9474 33.6477L14.9474 33.6565L14.9475 33.6468L14.9474 33.637L12.9474 33.6477ZM14.7053 27.8771L13.0873 26.7015L13.0817 26.7091L14.7053 27.8771ZM33.7926 24.0241L32.9586 25.8419L32.9626 25.8438L33.7926 24.0241ZM38.5156 27.8771L36.8644 29.0056L36.8644 29.0056L38.5156 27.8771ZM40.2557 33.5945V35.5945H42.2887L42.2554 33.5617L40.2557 33.5945ZM32.8871 33.5945L34.8773 33.3971C34.6841 31.4492 33.815 29.8025 32.244 28.6458L31.0582 30.2564L29.8724 31.8669C30.4559 32.2965 30.8059 32.8751 30.8968 33.7918L32.8871 33.5945ZM31.0582 30.2564L32.244 28.6458C30.7142 27.5195 28.787 27.0668 26.6726 27.0668V29.0668V31.0668C28.2514 31.0668 29.2479 31.4071 29.8724 31.8669L31.0582 30.2564ZM26.6726 29.0668V27.0668C25.2414 27.0668 23.9067 27.2676 22.7341 27.7496L23.4943 29.5994L24.2545 31.4493C24.8101 31.221 25.5943 31.0668 26.6726 31.0668V29.0668ZM23.4943 29.5994L22.7559 27.7407C21.6211 28.1916 20.6305 28.8712 19.9057 29.8376L21.5057 31.0376L23.1057 32.2376C23.3042 31.973 23.6393 31.6939 24.2327 31.4581L23.4943 29.5994ZM21.5057 31.0376L19.8909 29.8576C19.1842 30.8247 18.831 31.9386 18.831 33.1328H20.831H22.831C22.831 32.7645 22.9275 32.4817 23.1205 32.2177L21.5057 31.0376ZM20.831 33.1328L18.8323 33.0601C18.7965 34.0441 19.0031 35.0115 19.5318 35.8786L21.2393 34.8374L22.9469 33.7961C22.8838 33.6925 22.8181 33.5236 22.8296 33.2055L20.831 33.1328ZM21.2393 34.8374L19.5503 35.9084C20.024 36.6554 20.652 37.2697 21.3906 37.7621L22.5 36.098L23.6094 34.4339C23.2826 34.2161 23.0702 33.99 22.9284 33.7663L21.2393 34.8374ZM22.5 36.098L21.4166 37.7792C22.0891 38.2126 22.8376 38.5754 23.6478 38.8775L24.3466 37.0036L25.0454 35.1296C24.4588 34.9109 23.9762 34.67 23.5834 34.4169L22.5 36.098ZM24.3466 37.0036L23.6759 38.8878C24.4577 39.166 25.282 39.4008 26.1469 39.5944L26.5838 37.6428L27.0208 35.6911C26.2994 35.5296 25.6323 35.3383 25.0172 35.1193L24.3466 37.0036ZM26.5838 37.6428L26.1187 39.5879L29.3857 40.3692L29.8509 38.424L30.316 36.4788L27.049 35.6976L26.5838 37.6428ZM29.8509 38.424L29.4139 40.3757C30.8853 40.7051 32.2128 41.1392 33.4034 41.6707L34.2188 39.8445L35.0341 38.0182C33.5732 37.366 31.9888 36.8531 30.2878 36.4723L29.8509 38.424ZM34.2188 39.8445L33.4034 41.6707C34.5634 42.1886 35.5331 42.8097 36.3335 43.5222L37.6634 42.0284L38.9932 40.5346C37.8523 39.5189 36.5257 38.6841 35.0341 38.0182L34.2188 39.8445ZM37.6634 42.0284L36.3335 43.5222C37.0979 44.2027 37.6814 44.9945 38.0976 45.91L39.9183 45.0824L41.7391 44.2548C41.0899 42.8266 40.1701 41.5823 38.9932 40.5346L37.6634 42.0284ZM39.9183 45.0824L38.1046 45.9251C38.5096 46.7969 38.7429 47.8504 38.7529 49.1285L40.7528 49.1129L42.7528 49.0973C42.7391 47.3452 42.4161 45.7117 41.7321 44.2396L39.9183 45.0824ZM40.7528 49.1129L38.7529 49.1023C38.7429 50.9772 38.2706 52.5039 37.4009 53.7672L39.0483 54.9013L40.6957 56.0353C42.075 54.0316 42.7391 51.6994 42.7528 49.1236L40.7528 49.1129ZM39.0483 54.9013L37.3992 53.7698C36.5348 55.0295 35.2498 56.0683 33.4334 56.8439L34.2188 58.6832L35.0041 60.5226C37.4017 59.4989 39.3364 58.0164 40.6974 56.0328L39.0483 54.9013ZM34.2188 58.6832L33.4385 56.8417C31.6522 57.5986 29.4051 58.0149 26.6371 58.0149V60.0149V62.0149C29.7876 62.0149 32.5949 61.5434 34.999 60.5247L34.2188 58.6832ZM26.6371 60.0149V58.0149C23.9012 58.0149 21.6145 57.5953 19.7301 56.817L18.9666 58.6655L18.2031 60.514C20.6748 61.5349 23.5017 62.0149 26.6371 62.0149V60.0149ZM18.9666 58.6655L19.7337 56.8184C17.8877 56.0518 16.514 54.9514 15.5337 53.5332L13.8885 54.6705L12.2433 55.8077C13.7014 57.917 15.7132 59.48 18.1995 60.5125L18.9666 58.6655ZM13.8885 54.6705L15.5423 53.5458C14.5951 52.1528 14.0405 50.3532 13.9881 48.0379L11.9886 48.0831L9.98915 48.1283C10.0551 51.045 10.7671 53.6369 12.2346 55.7951L13.8885 54.6705ZM11.9886 48.0831V50.0831H19.4283V48.0831V46.0831H11.9886V48.0831ZM19.4283 48.0831L17.4329 48.2187C17.5368 49.7486 17.9874 51.1581 18.8786 52.3408L20.4759 51.1371L22.0731 49.9334C21.7333 49.4825 21.4854 48.8561 21.4237 47.9475L19.4283 48.0831ZM20.4759 51.1371L18.8984 52.3666C19.7655 53.479 20.9017 54.2919 22.2403 54.8243L22.9794 52.9659L23.7185 51.1075C22.9738 50.8113 22.441 50.405 22.0533 49.9076L20.4759 51.1371ZM22.9794 52.9659L22.2657 54.8342C23.5833 55.3376 25.0206 55.5696 26.5483 55.5696V53.5696V51.5696C25.4245 51.5696 24.4826 51.3992 23.6931 51.0976L22.9794 52.9659ZM26.5483 53.5696V55.5696C28.0384 55.5696 29.4291 55.3535 30.6745 54.8615L29.9396 53.0014L29.2048 51.1413C28.5325 51.4069 27.6623 51.5696 26.5483 51.5696V53.5696ZM29.9396 53.0014L30.6667 54.8646C31.8985 54.3839 32.9688 53.6681 33.7644 52.6605L32.1946 51.4212L30.6248 50.1819C30.355 50.5236 29.922 50.8614 29.2125 51.1383L29.9396 53.0014ZM32.1946 51.4212L33.7644 52.6605C34.5814 51.6256 34.9936 50.4116 34.9936 49.0952H32.9936H30.9936C30.9936 49.5306 30.8732 49.8673 30.6248 50.1819L32.1946 51.4212ZM32.9936 49.0952H34.9936C34.9936 47.8502 34.6104 46.681 33.7728 45.7208L32.2656 47.0355L30.7585 48.3502C30.8915 48.5027 30.9936 48.7066 30.9936 49.0952H32.9936ZM32.2656 47.0355L33.7887 45.7393C33.0524 44.8741 32.0589 44.2424 30.9497 43.7731L30.1705 45.6151L29.3912 47.457C30.1286 47.769 30.5319 48.0843 30.7425 48.3317L32.2656 47.0355ZM30.1705 45.6151L30.9583 43.7768C29.9134 43.329 28.6809 42.9423 27.2833 42.6054L26.8146 44.5497L26.3459 46.494C27.5999 46.7963 28.6046 47.1199 29.3826 47.4533L30.1705 45.6151ZM26.8146 44.5497L27.3017 42.6099L23.3422 41.6156L22.8551 43.5554L22.368 45.4952L26.3275 46.4895L26.8146 44.5497ZM22.8551 43.5554L23.3278 41.6121C20.4814 40.9197 18.3892 39.8736 16.9255 38.566L15.593 40.0575L14.2606 41.5491C16.348 43.4138 19.0972 44.6996 22.3824 45.4987L22.8551 43.5554ZM15.593 40.0575L16.9255 38.566C15.6344 37.4127 14.9377 35.8529 14.9474 33.6565L12.9474 33.6477L10.9475 33.6389C10.9335 36.8166 12.0005 39.53 14.2606 41.5491L15.593 40.0575ZM12.9474 33.6477L14.9474 33.637C14.9376 31.8196 15.4136 30.3173 16.3288 29.0451L14.7053 27.8771L13.0817 26.7091C11.6295 28.7277 10.9336 31.0724 10.9475 33.6585L12.9474 33.6477ZM14.7053 27.8771L16.3232 29.0528C17.2877 27.7255 18.633 26.6508 20.4339 25.8526L19.6236 24.0241L18.8132 22.1957C16.4475 23.2441 14.5139 24.7381 13.0873 26.7015L14.7053 27.8771ZM19.6236 24.0241L20.4339 25.8526C22.2237 25.0594 24.3082 24.6392 26.7259 24.6392V22.6392V20.6392C23.8405 20.6392 21.1901 21.1423 18.8132 22.1957L19.6236 24.0241ZM26.7259 22.6392V24.6392C29.1986 24.6392 31.2588 25.062 32.9586 25.8419L33.7926 24.0241L34.6267 22.2064C32.3019 21.1397 29.6509 20.6392 26.7259 20.6392V22.6392ZM33.7926 24.0241L32.9626 25.8438C34.6948 26.6339 35.9688 27.6952 36.8644 29.0056L38.5156 27.8771L40.1668 26.7486C38.8134 24.7683 36.9387 23.261 34.6226 22.2045L33.7926 24.0241ZM38.5156 27.8771L36.8644 29.0056C37.7488 30.2996 38.2263 31.8169 38.2559 33.6272L40.2557 33.5945L42.2554 33.5617C42.2141 31.0396 41.5315 28.7454 40.1668 26.7486L38.5156 27.8771ZM40.2557 33.5945V31.5945H32.8871V33.5945V35.5945H40.2557V33.5945ZM47.9071 59.1094L47.0831 60.9317L47.0897 60.9347L47.0963 60.9377L47.9071 59.1094ZM44.6756 56.3928L42.9965 57.4793L43.0027 57.4888L43.009 57.4983L44.6756 56.3928ZM44.3382 48.0653L42.5786 47.1147L42.5786 47.1147L44.3382 48.0653ZM46.611 45.5795L45.5159 43.906L45.5159 43.906L46.611 45.5795ZM49.878 44.1591L49.3754 42.2233L49.3709 42.2245L49.878 44.1591ZM53.7488 43.4844L53.9408 45.4751L53.9487 45.4744L53.9566 45.4735L53.7488 43.4844ZM57.584 43.0227L57.8736 45.0016L57.8854 44.9999L57.8971 44.9981L57.584 43.0227ZM59.6969 42.348L58.5772 40.6908L58.5772 40.6908L59.6969 42.348ZM59.2885 38.3175L57.9661 39.8179L57.9724 39.8234L57.9787 39.8288L59.2885 38.3175ZM53.0563 38.2997L54.2411 39.911L54.2487 39.9054L54.2563 39.8997L53.0563 38.2997ZM51.4583 40.5369L51.2964 42.5304L52.925 42.6626L53.3794 41.093L51.4583 40.5369ZM44.4625 39.9688L42.5069 39.5497L42.0295 41.7777L44.3006 41.9622L44.4625 39.9688ZM46.5577 35.6719L48.072 36.9784L48.0783 36.971L46.5577 35.6719ZM50.5882 32.8665L51.3241 34.7262L51.331 34.7234L50.5882 32.8665ZM60.6912 32.4048L60.1945 34.3422L60.1984 34.3432L60.6912 32.4048ZM64.4022 34.0561L63.2637 35.7005L63.2722 35.7063L64.4022 34.0561ZM66.9767 36.9325L65.2135 37.8765L65.2175 37.8839L66.9767 36.9325ZM67.9178 59.5V61.5H69.9178V59.5H67.9178ZM60.7445 59.5H58.7445V61.5H60.7445V59.5ZM60.7445 55.718H62.7445V53.718H60.7445V55.718ZM60.5314 55.718V53.718H59.3106L58.7526 54.8039L60.5314 55.718ZM58.7736 57.973L60.0872 59.4812L60.094 59.4752L60.1008 59.4692L58.7736 57.973ZM56.128 59.4822L56.78 61.373L56.7897 61.3697L56.7993 61.3662L56.128 59.4822ZM57.6728 54.1378L58.5869 55.9166L58.5966 55.9117L58.6063 55.9066L57.6728 54.1378ZM59.6792 52.3267L57.9951 51.2478L57.9951 51.2479L59.6792 52.3267ZM60.4071 46.858H62.4071V43.1726L59.3172 45.1811L60.4071 46.858ZM59.4306 47.2841L59.9949 49.2028L60.0126 49.1976L60.0302 49.1921L59.4306 47.2841ZM58.0634 47.6214L58.4292 49.5877L58.4512 49.5836L58.4731 49.579L58.0634 47.6214ZM56.5364 47.8878L56.8128 49.8686L56.8353 49.8655L56.8578 49.8618L56.5364 47.8878ZM55.1515 48.0831L54.8686 46.1032L54.8612 46.1043L55.1515 48.0831ZM52.8255 48.7045L53.6133 50.5428L53.6133 50.5428L52.8255 48.7045ZM51.2807 49.8587L52.8615 51.0838L52.8688 51.0744L52.876 51.0649L51.2807 49.8587ZM51.8489 53.9957L50.6695 55.611L50.6839 55.6215L50.6985 55.6318L51.8489 53.9957ZM52.5591 60.0149V58.0149C51.0518 58.0149 49.7845 57.7541 48.7179 57.2811L47.9071 59.1094L47.0963 60.9377C48.7523 61.672 50.5864 62.0149 52.5591 62.0149V60.0149ZM47.9071 59.1094L48.7312 57.287C47.6977 56.8197 46.9186 56.156 46.3422 55.2872L44.6756 56.3928L43.009 57.4983C44.0188 59.0206 45.394 60.168 47.0831 60.9317L47.9071 59.1094ZM44.6756 56.3928L46.3547 55.3063C45.8299 54.4951 45.5037 53.3932 45.5037 51.8828H43.5037H41.5037C41.5037 53.9709 41.9588 55.8756 42.9965 57.4793L44.6756 56.3928ZM43.5037 51.8828H45.5037C45.5037 50.6046 45.739 49.6803 46.0979 49.016L44.3382 48.0653L42.5786 47.1147C41.8248 48.51 41.5037 50.1307 41.5037 51.8828H43.5037ZM44.3382 48.0653L46.0979 49.016C46.4998 48.272 47.0316 47.6944 47.706 47.2531L46.611 45.5795L45.5159 43.906C44.2728 44.7194 43.2894 45.799 42.5786 47.1147L44.3382 48.0653ZM46.611 45.5795L47.706 47.2531C48.4671 46.7551 49.3539 46.364 50.3852 46.0937L49.878 44.1591L49.3709 42.2245C47.9636 42.5933 46.6725 43.1492 45.5159 43.906L46.611 45.5795ZM49.878 44.1591L50.3806 46.0949C51.5033 45.8034 52.6894 45.5959 53.9408 45.4751L53.7488 43.4844L53.5567 41.4936C52.1093 41.6333 50.7148 41.8755 49.3754 42.2233L49.878 44.1591ZM53.7488 43.4844L53.9566 45.4735C55.5555 45.3065 56.8643 45.1493 57.8736 45.0016L57.584 43.0227L57.2944 41.0438C56.3623 41.1802 55.1144 41.3308 53.5409 41.4952L53.7488 43.4844ZM57.584 43.0227L57.8971 44.9981C58.9501 44.8311 60.0082 44.5514 60.8166 44.0052L59.6969 42.348L58.5772 40.6908C58.5097 40.7365 58.1592 40.9066 57.2708 41.0474L57.584 43.0227ZM59.6969 42.348L60.8166 44.0052C61.8653 43.2967 62.3539 42.2023 62.3539 41.0341H60.3539H58.3539C58.3539 41.0705 58.348 41.0087 58.4008 40.9032C58.4572 40.7904 58.5346 40.7196 58.5772 40.6908L59.6969 42.348ZM60.3539 41.0341H62.3539V40.9276H60.3539H58.3539V41.0341H60.3539ZM60.3539 40.9276H62.3539C62.3539 39.348 61.8333 37.8764 60.5984 36.8061L59.2885 38.3175L57.9787 39.8288C58.1642 39.9896 58.3539 40.2581 58.3539 40.9276H60.3539ZM59.2885 38.3175L60.6109 36.8171C59.4273 35.7739 57.8948 35.3942 56.3056 35.3942V37.3942V39.3942C57.2968 39.3942 57.7529 39.63 57.9661 39.8179L59.2885 38.3175ZM56.3056 37.3942V35.3942C54.6625 35.3942 53.1113 35.7585 51.8563 36.6997L53.0563 38.2997L54.2563 39.8997C54.6111 39.6336 55.2262 39.3942 56.3056 39.3942V37.3942ZM53.0563 38.2997L51.8715 36.6884C50.7369 37.5227 49.9285 38.6287 49.5371 39.9808L51.4583 40.5369L53.3794 41.093C53.5088 40.6459 53.7658 40.2605 54.2411 39.911L53.0563 38.2997ZM51.4583 40.5369L51.6202 38.5435L44.6244 37.9753L44.4625 39.9688L44.3006 41.9622L51.2964 42.5304L51.4583 40.5369ZM44.4625 39.9688L46.4181 40.3878C46.7075 39.0375 47.2634 37.9156 48.072 36.9783L46.5577 35.6719L45.0434 34.3654C43.7687 35.8429 42.9278 37.5856 42.5069 39.5497L44.4625 39.9688ZM46.5577 35.6719L48.0783 36.971C48.8868 36.0248 49.9502 35.2698 51.3241 34.7262L50.5882 32.8665L49.8524 31.0068C47.9356 31.7652 46.312 32.8805 45.0371 34.3727L46.5577 35.6719ZM50.5882 32.8665L51.331 34.7234C52.7062 34.1734 54.363 33.8722 56.3411 33.8722V31.8722V29.8722C53.9631 29.8722 51.7847 30.2338 49.8455 31.0095L50.5882 32.8665ZM56.3411 31.8722V33.8722C57.6987 33.8722 58.9812 34.0311 60.1945 34.3422L60.6912 32.4048L61.188 30.4675C59.6313 30.0684 58.0138 29.8722 56.3411 29.8722V31.8722ZM60.6912 32.4048L60.1984 34.3432C61.3873 34.6454 62.4012 35.1034 63.2637 35.7005L64.4022 34.0561L65.5406 32.4117C64.2488 31.5174 62.7887 30.8745 61.184 30.4665L60.6912 32.4048ZM64.4022 34.0561L63.2722 35.7063C64.0946 36.2695 64.7364 36.9853 65.2135 37.8765L66.9767 36.9325L68.74 35.9886C67.9623 34.536 66.8878 33.3342 65.5322 32.4059L64.4022 34.0561ZM66.9767 36.9325L65.2175 37.8839C65.6545 38.692 65.9178 39.7403 65.9178 41.1051H67.9178H69.9178C69.9178 39.2266 69.5537 37.4932 68.736 35.9811L66.9767 36.9325ZM67.9178 41.1051H65.9178V59.5H67.9178H69.9178V41.1051H67.9178ZM67.9178 59.5V57.5H60.7445V59.5V61.5H67.9178V59.5ZM60.7445 59.5H62.7445V55.718H60.7445H58.7445V59.5H60.7445ZM60.7445 55.718V53.718H60.5314V55.718V57.718H60.7445V55.718ZM60.5314 55.718L58.7526 54.8039C58.4305 55.4306 57.9995 55.9862 57.4464 56.4769L58.7736 57.973L60.1008 59.4692C61.0155 58.6577 61.7564 57.71 62.3103 56.6322L60.5314 55.718ZM58.7736 57.973L57.4601 56.4648C56.9367 56.9207 56.2798 57.305 55.4567 57.5983L56.128 59.4822L56.7993 61.3662C58.0359 60.9256 59.1427 60.3038 60.0872 59.4812L58.7736 57.973ZM56.128 59.4822L55.476 57.5915C54.6992 57.8594 53.7376 58.0149 52.5591 58.0149V60.0149V62.0149C54.0796 62.0149 55.4972 61.8153 56.78 61.373L56.128 59.4822ZM54.7253 54.7947V56.7947C56.1046 56.7947 57.4094 56.5217 58.5869 55.9166L57.6728 54.1378L56.7586 52.3589C56.2315 52.6298 55.5714 52.7947 54.7253 52.7947V54.7947ZM57.6728 54.1378L58.6063 55.9066C59.7417 55.3073 60.6783 54.4747 61.3632 53.4056L59.6792 52.3267L57.9951 51.2479C57.7094 51.6938 57.3084 52.0686 56.7392 52.369L57.6728 54.1378ZM59.6792 52.3267L61.3632 53.4056C62.0686 52.3045 62.4071 51.0671 62.4071 49.7521H60.4071H58.4071C58.4071 50.3548 58.2604 50.8337 57.9951 51.2478L59.6792 52.3267ZM60.4071 49.7521H62.4071V46.858H60.4071H58.4071V49.7521H60.4071ZM60.4071 46.858L59.3172 45.1811C59.2911 45.198 59.1544 45.2745 58.8309 45.3761L59.4306 47.2841L60.0302 49.1921C60.5354 49.0333 61.0497 48.8257 61.4971 48.5348L60.4071 46.858ZM59.4306 47.2841L58.8662 45.3654C58.5251 45.4657 58.1224 45.5658 57.6537 45.6639L58.0634 47.6214L58.4731 49.579C59.0224 49.4641 59.5311 49.3392 59.9949 49.2028L59.4306 47.2841ZM58.0634 47.6214L57.6976 45.6552C57.2033 45.7471 56.7091 45.8333 56.215 45.9138L56.5364 47.8878L56.8578 49.8618C57.3817 49.7765 57.9055 49.6851 58.4292 49.5877L58.0634 47.6214ZM56.5364 47.8878L56.26 45.907C55.7493 45.9782 55.2855 46.0436 54.8686 46.1032L55.1515 48.0831L55.4343 50.063C55.846 50.0042 56.3055 49.9394 56.8128 49.8686L56.5364 47.8878ZM55.1515 48.0831L54.8612 46.1043C53.842 46.2538 52.8927 46.4998 52.0376 46.8663L52.8255 48.7045L53.6133 50.5428C54.0839 50.3411 54.6854 50.1729 55.4417 50.0619L55.1515 48.0831ZM52.8255 48.7045L52.0376 46.8663C51.1147 47.2618 50.2978 47.8425 49.6854 48.6524L51.2807 49.8587L52.876 51.0649C52.9975 50.9042 53.2105 50.7155 53.6133 50.5428L52.8255 48.7045ZM51.2807 49.8587L49.6999 48.6335C49.0132 49.5196 48.7303 50.5658 48.7303 51.6342H50.7303H52.7303C52.7303 51.2822 52.8143 51.1447 52.8615 51.0838L51.2807 49.8587ZM50.7303 51.6342H48.7303C48.7303 53.2176 49.343 54.6424 50.6695 55.611L51.8489 53.9957L53.0283 52.3805C52.8633 52.26 52.7303 52.1106 52.7303 51.6342H50.7303ZM51.8489 53.9957L50.6985 55.6318C51.8695 56.4552 53.2582 56.7947 54.7253 56.7947V54.7947V52.7947C53.8723 52.7947 53.3434 52.6017 52.9993 52.3597L51.8489 53.9957ZM87.4522 32.2273H89.4522V30.2273H87.4522V32.2273ZM87.4522 37.9091V39.9091H89.4522V37.9091H87.4522ZM70.6199 37.9091H68.6199V39.9091H70.6199V37.9091ZM70.6199 32.2273V30.2273H68.6199V32.2273H70.6199ZM74.4728 59.5H72.4728V61.5H74.4728V59.5ZM75.627 25.3381L73.9119 24.3091L73.9051 24.3206L75.627 25.3381ZM78.823 22.4084L77.9539 20.6071L77.9539 20.6071L78.823 22.4084ZM86.6 21.6982L86.2358 23.6647L86.2401 23.6655L86.6 21.6982ZM88.7662 22.1776L90.712 22.6397L91.148 20.804L89.3409 20.2619L88.7662 22.1776ZM87.4167 27.8594L86.8072 29.7642L88.8637 30.4223L89.3626 28.3215L87.4167 27.8594ZM86.3159 27.593L85.9341 29.5563L85.9441 29.5582L86.3159 27.593ZM82.676 28.25L84.192 29.5545L84.1994 29.5459L84.2067 29.5372L82.676 28.25ZM82.019 59.5V61.5H84.019V59.5H82.019ZM87.4522 32.2273H85.4522V37.9091H87.4522H89.4522V32.2273H87.4522ZM87.4522 37.9091V35.9091H70.6199V37.9091V39.9091H87.4522V37.9091ZM70.6199 37.9091H72.6199V32.2273H70.6199H68.6199V37.9091H70.6199ZM70.6199 32.2273V34.2273H87.4522V32.2273V30.2273H70.6199V32.2273ZM74.4728 59.5H76.4728V30.2564H74.4728H72.4728V59.5H74.4728ZM74.4728 30.2564H76.4728C76.4728 28.5303 76.8092 27.2687 77.3488 26.3555L75.627 25.3381L73.9051 24.3206C72.9059 26.0116 72.4728 28.0289 72.4728 30.2564H74.4728ZM75.627 25.3381L77.3419 26.3671C77.9254 25.3946 78.6988 24.6889 79.692 24.2097L78.823 22.4084L77.9539 20.6071C76.2482 21.43 74.891 22.6774 73.912 24.3091L75.627 25.3381ZM78.823 22.4084L79.692 24.2097C80.7335 23.7072 81.9624 23.4318 83.4217 23.4318V21.4318V19.4318C81.4482 19.4318 79.6113 19.8074 77.9539 20.6071L78.823 22.4084ZM83.4217 21.4318V23.4318C84.4818 23.4318 85.4171 23.5131 86.2358 23.6647L86.6 21.6982L86.9641 19.7316C85.8652 19.5281 84.6817 19.4318 83.4217 19.4318V21.4318ZM86.6 21.6982L86.2401 23.6655C87.1946 23.8401 87.8278 23.9841 88.1915 24.0932L88.7662 22.1776L89.3409 20.2619C88.7575 20.0869 87.9466 19.9113 86.9598 19.7308L86.6 21.6982ZM88.7662 22.1776L86.8203 21.7154L85.4709 27.3972L87.4167 27.8594L89.3626 28.3215L90.712 22.6397L88.7662 22.1776ZM87.4167 27.8594L88.0263 25.9545C87.627 25.8268 87.1747 25.72 86.6877 25.6279L86.3159 27.593L85.9441 29.5582C86.333 29.6318 86.6146 29.7026 86.8072 29.7642L87.4167 27.8594ZM86.3159 27.593L86.6976 25.6298C86.1412 25.5216 85.5753 25.4688 85.002 25.4688V27.4688V29.4688C85.3283 29.4688 85.6382 29.4987 85.9341 29.5563L86.3159 27.593ZM85.002 27.4688V25.4688C83.6663 25.4688 82.149 25.7691 81.1452 26.9628L82.676 28.25L84.2067 29.5372C84.1455 29.61 84.1126 29.597 84.2227 29.56C84.3461 29.5185 84.5895 29.4688 85.002 29.4688V27.4688ZM82.676 28.25L81.1599 26.9455C80.3098 27.9335 80.019 29.1759 80.019 30.3984H82.019H84.019C84.019 29.7744 84.1662 29.5845 84.192 29.5545L82.676 28.25ZM82.019 30.3984H80.019V59.5H82.019H84.019V30.3984H82.019ZM82.019 59.5V57.5H74.4728V59.5V61.5H82.019V59.5ZM95.2812 58.3281L94.29 60.0653L94.3022 60.0721L95.2812 58.3281ZM90.6293 53.4631L88.8525 54.3814L88.8547 54.3855L90.6293 53.4631ZM90.6293 38.6016L88.8505 37.6873L88.8505 37.6873L90.6293 38.6016ZM95.228 33.6477L94.205 31.9291L94.2005 31.9318L95.228 33.6477ZM107.249 32.7422L106.548 34.6154L106.556 34.6186L106.565 34.6218L107.249 32.7422ZM111.332 35.3168L109.925 36.7382L109.933 36.7453L111.332 35.3168ZM114.067 39.6491L112.194 40.35L112.195 40.3542L114.067 39.6491ZM115.043 47.799V49.799H117.043V47.799H115.043ZM92.0142 47.799H90.0142V49.799H92.0142V47.799ZM92.0142 43.1115V41.1115H90.0142V43.1115H92.0142ZM107.923 43.1115V45.1115H109.923V43.1115H107.923ZM107.213 40.2173L105.471 41.199L105.471 41.199L107.213 40.2173ZM105.242 38.2464L104.231 39.9722L104.246 39.9807L104.261 39.9889L105.242 38.2464ZM99.294 38.3175L100.316 40.0366L100.323 40.0325L99.294 38.3175ZM97.2344 40.4304L98.9738 41.4176L98.9794 41.4076L97.2344 40.4304ZM96.4709 43.3601L94.471 43.3381L94.4709 43.3491V43.3601H96.4709ZM97.2166 51.3146L95.4321 52.2176L95.4364 52.2262L95.4408 52.2346L97.2166 51.3146ZM104.958 54.0312L104.316 52.1371L104.316 52.1371L104.958 54.0312ZM106.751 52.9659L105.372 51.5176L105.372 51.5176L106.751 52.9659ZM107.888 51.2259L108.019 49.2302L106.543 49.1327L106.018 50.5165L107.888 51.2259ZM114.884 51.6875L116.84 52.1009L117.317 49.8437L115.015 49.6918L114.884 51.6875ZM112.7 56.0909L111.196 54.7719L111.195 54.7729L112.7 56.0909ZM108.474 59.0028L109.217 60.8598L109.223 60.8572L108.474 59.0028ZM102.526 60.0327V58.0327C99.9918 58.0327 97.9289 57.5209 96.2603 56.5842L95.2812 58.3281L94.3022 60.0721C96.6819 61.4081 99.4485 62.0327 102.526 62.0327V60.0327ZM95.2812 58.3281L96.2724 56.591C94.6009 55.6372 93.3191 54.3015 92.4039 52.5407L90.6293 53.4631L88.8547 54.3855C90.1174 56.8149 91.937 58.7226 94.2901 60.0652L95.2812 58.3281ZM90.6293 53.4631L92.406 52.5448C91.4917 50.7759 90.9957 48.612 90.9957 45.9879H88.9957H86.9957C86.9957 49.1167 87.5888 51.9363 88.8525 54.3814L90.6293 53.4631ZM88.9957 45.9879H90.9957C90.9957 43.4442 91.4882 41.3056 92.4081 39.5158L90.6293 38.6016L88.8505 37.6873C87.5923 40.1352 86.9957 42.9209 86.9957 45.9879H88.9957ZM90.6293 38.6016L92.4081 39.5158C93.3325 37.7172 94.6103 36.3488 96.2555 35.3636L95.228 33.6477L94.2005 31.9318C91.8921 33.3141 90.1041 35.2482 88.8505 37.6873L90.6293 38.6016ZM95.228 33.6477L96.251 35.3663C97.8846 34.3939 99.8516 33.8722 102.224 33.8722V31.8722V29.8722C99.2454 29.8722 96.5487 30.5341 94.205 31.9291L95.228 33.6477ZM102.224 31.8722V33.8722C103.805 33.8722 105.24 34.1262 106.548 34.6154L107.249 32.7422L107.949 30.8689C106.156 30.1981 104.241 29.8722 102.224 29.8722V31.8722ZM107.249 32.7422L106.565 34.6218C107.861 35.0932 108.975 35.797 109.925 36.7382L111.332 35.3168L112.739 33.8953C111.37 32.5401 109.761 31.5276 107.932 30.8626L107.249 32.7422ZM111.332 35.3168L109.933 36.7453C110.869 37.663 111.632 38.8478 112.194 40.35L114.067 39.6491L115.94 38.9483C115.2 36.9703 114.139 35.2669 112.732 33.8882L111.332 35.3168ZM114.067 39.6491L112.195 40.3542C112.743 41.8076 113.043 43.5831 113.043 45.7216H115.043H117.043C117.043 43.2199 116.693 40.9472 115.938 38.9441L114.067 39.6491ZM115.043 45.7216H113.043V47.799H115.043H117.043V45.7216H115.043ZM115.043 47.799V45.799H92.0142V47.799V49.799H115.043V47.799ZM92.0142 47.799H94.0142V43.1115H92.0142H90.0142V47.799H92.0142ZM92.0142 43.1115V45.1115H107.923V43.1115V41.1115H92.0142V43.1115ZM107.923 43.1115H109.923C109.923 41.7237 109.619 40.4127 108.956 39.2356L107.213 40.2173L105.471 41.199C105.754 41.7028 105.923 42.3213 105.923 43.1115H107.923ZM107.213 40.2173L108.956 39.2356C108.303 38.0769 107.383 37.1568 106.224 36.504L105.242 38.2464L104.261 39.9889C104.783 40.2831 105.176 40.6769 105.471 41.199L107.213 40.2173ZM105.242 38.2464L106.253 36.5207C105.075 35.8308 103.751 35.5185 102.348 35.5185V37.5185V39.5185C103.146 39.5185 103.752 39.6914 104.231 39.9722L105.242 38.2464ZM102.348 37.5185V35.5185C100.878 35.5185 99.4968 35.8635 98.265 36.6025L99.294 38.3175L100.323 40.0325C100.867 39.7061 101.522 39.5185 102.348 39.5185V37.5185ZM99.294 38.3175L98.2719 36.5984C97.0945 37.2985 96.1584 38.2584 95.4894 39.4532L97.2344 40.4304L98.9794 41.4076C99.3046 40.8268 99.7417 40.3781 100.316 40.0365L99.294 38.3175ZM97.2344 40.4304L95.495 39.4432C94.8191 40.6341 94.4863 41.9466 94.471 43.3381L96.4709 43.3601L98.4708 43.3821C98.4791 42.6192 98.6553 41.9786 98.9737 41.4176L97.2344 40.4304ZM96.4709 43.3601H94.4709V47.8168H96.4709H98.4709V43.3601H96.4709ZM96.4709 47.8168H94.4709C94.4709 49.4103 94.7649 50.8991 95.4321 52.2176L97.2166 51.3146L99.0012 50.4116C98.6741 49.7652 98.4709 48.9221 98.4709 47.8168H96.4709ZM97.2166 51.3146L95.4408 52.2346C96.1186 53.5429 97.0982 54.5885 98.3656 55.3197L99.3651 53.5874L100.365 51.855C99.7854 51.5209 99.3327 51.0513 98.9925 50.3946L97.2166 51.3146ZM99.3651 53.5874L98.3656 55.3197C99.6455 56.0581 101.099 56.3864 102.65 56.3864V54.3864V52.3864C101.668 52.3864 100.931 52.1819 100.365 51.855L99.3651 53.5874ZM102.65 54.3864V56.3864C103.679 56.3864 104.668 56.2413 105.6 55.9254L104.958 54.0312L104.316 52.1371C103.851 52.2947 103.302 52.3864 102.65 52.3864V54.3864ZM104.958 54.0312L105.6 55.9254C106.553 55.6024 107.408 55.1027 108.131 54.4142L106.751 52.9659L105.372 51.5176C105.101 51.7761 104.76 51.9866 104.316 52.1371L104.958 54.0312ZM106.751 52.9659L108.131 54.4142C108.86 53.72 109.399 52.8818 109.758 51.9352L107.888 51.2259L106.018 50.5165C105.856 50.943 105.638 51.2648 105.372 51.5176L106.751 52.9659ZM107.888 51.2259L107.756 53.2215L114.752 53.6832L114.884 51.6875L115.015 49.6918L108.019 49.2302L107.888 51.2259ZM114.884 51.6875L112.927 51.2741C112.64 52.6294 112.064 53.7829 111.196 54.7719L112.7 56.0909L114.203 57.4099C115.537 55.8895 116.416 54.1073 116.84 52.1009L114.884 51.6875ZM112.7 56.0909L111.195 54.7729C110.338 55.7518 109.2 56.5522 107.724 57.1485L108.474 59.0028L109.223 60.8572C111.204 60.0567 112.884 58.9158 114.204 57.4089L112.7 56.0909ZM108.474 59.0028L107.731 57.1459C106.296 57.7199 104.574 58.0327 102.526 58.0327V60.0327V62.0327C104.975 62.0327 107.219 61.6589 109.217 60.8598L108.474 59.0028ZM149.537 23.1364H151.537V21.1364H149.537V23.1364ZM149.537 59.5V61.5H151.537V59.5H149.537ZM142.896 59.5L141.251 60.6372L141.847 61.5H142.896V59.5ZM127.076 36.6129L128.721 35.4757L128.125 34.6129H127.076V36.6129ZM126.81 36.6129V34.6129H124.81V36.6129H126.81ZM126.81 59.5V61.5H128.81V59.5H126.81ZM119.121 59.5H117.121V61.5H119.121V59.5ZM119.121 23.1364V21.1364H117.121V23.1364H119.121ZM125.869 23.1364L127.518 22.0046L126.922 21.1364H125.869V23.1364ZM141.565 46.0057L139.916 47.1374L140.512 48.0057H141.565V46.0057ZM141.884 46.0057V48.0057H143.884V46.0057H141.884ZM141.884 23.1364V21.1364H139.884V23.1364H141.884ZM149.537 23.1364H147.537V59.5H149.537H151.537V23.1364H149.537ZM149.537 59.5V57.5H142.896V59.5V61.5H149.537V59.5ZM142.896 59.5L144.542 58.3628L128.721 35.4757L127.076 36.6129L125.431 37.7501L141.251 60.6372L142.896 59.5ZM127.076 36.6129V34.6129H126.81V36.6129V38.6129H127.076V36.6129ZM126.81 36.6129H124.81V59.5H126.81H128.81V36.6129H126.81ZM126.81 59.5V57.5H119.121V59.5V61.5H126.81V59.5ZM119.121 59.5H121.121V23.1364H119.121H117.121V59.5H119.121ZM119.121 23.1364V25.1364H125.869V23.1364V21.1364H119.121V23.1364ZM125.869 23.1364L124.22 24.2681L139.916 47.1374L141.565 46.0057L143.214 44.8739L127.518 22.0046L125.869 23.1364ZM141.565 46.0057V48.0057H141.884V46.0057V44.0057H141.565V46.0057ZM141.884 46.0057H143.884V23.1364H141.884H139.884V46.0057H141.884ZM141.884 23.1364V25.1364H149.537V23.1364V21.1364H141.884V23.1364ZM159.932 58.3281L158.94 60.0653L158.953 60.0721L159.932 58.3281ZM155.28 53.4631L153.503 54.3814L153.505 54.3855L155.28 53.4631ZM155.28 38.6016L153.501 37.6873L153.501 37.6873L155.28 38.6016ZM159.878 33.6477L158.855 31.9291L158.851 31.9318L159.878 33.6477ZM171.899 32.7422L171.198 34.6154L171.207 34.6186L171.215 34.6218L171.899 32.7422ZM175.983 35.3168L174.576 36.7382L174.583 36.7453L175.983 35.3168ZM178.717 39.6491L176.844 40.35L176.846 40.3542L178.717 39.6491ZM179.694 47.799V49.799H181.694V47.799H179.694ZM156.665 47.799H154.665V49.799H156.665V47.799ZM156.665 43.1115V41.1115H154.665V43.1115H156.665ZM172.574 43.1115V45.1115H174.574V43.1115H172.574ZM171.863 40.2173L170.121 41.199L170.121 41.199L171.863 40.2173ZM169.893 38.2464L168.882 39.9722L168.896 39.9807L168.911 39.9889L169.893 38.2464ZM163.944 38.3175L164.967 40.0366L164.973 40.0325L163.944 38.3175ZM161.885 40.4304L163.624 41.4176L163.63 41.4076L161.885 40.4304ZM161.121 43.3601L159.121 43.3381L159.121 43.3491V43.3601H161.121ZM161.867 51.3146L160.082 52.2176L160.087 52.2262L160.091 52.2346L161.867 51.3146ZM169.608 54.0312L168.966 52.1371L168.966 52.1371L169.608 54.0312ZM171.402 52.9659L170.023 51.5176L170.022 51.5176L171.402 52.9659ZM172.538 51.2259L172.67 49.2302L171.193 49.1327L170.668 50.5165L172.538 51.2259ZM179.534 51.6875L181.491 52.1009L181.968 49.8437L179.666 49.6918L179.534 51.6875ZM177.35 56.0909L175.847 54.7719L175.846 54.7729L177.35 56.0909ZM173.124 59.0028L173.867 60.8598L173.873 60.8572L173.124 59.0028ZM167.176 60.0327V58.0327C164.642 58.0327 162.579 57.5209 160.911 56.5842L159.932 58.3281L158.953 60.0721C161.332 61.4081 164.099 62.0327 167.176 62.0327V60.0327ZM159.932 58.3281L160.923 56.591C159.251 55.6372 157.969 54.3015 157.054 52.5407L155.28 53.4631L153.505 54.3855C154.768 56.8149 156.587 58.7226 158.94 60.0652L159.932 58.3281ZM155.28 53.4631L157.056 52.5448C156.142 50.7759 155.646 48.612 155.646 45.9879H153.646H151.646C151.646 49.1167 152.239 51.9363 153.503 54.3814L155.28 53.4631ZM153.646 45.9879H155.646C155.646 43.4442 156.139 41.3056 157.058 39.5158L155.28 38.6016L153.501 37.6873C152.243 40.1352 151.646 42.9209 151.646 45.9879H153.646ZM155.28 38.6016L157.058 39.5158C157.983 37.7172 159.261 36.3488 160.906 35.3636L159.878 33.6477L158.851 31.9318C156.542 33.3141 154.754 35.2482 153.501 37.6873L155.28 38.6016ZM159.878 33.6477L160.901 35.3663C162.535 34.3939 164.502 33.8722 166.874 33.8722V31.8722V29.8722C163.896 29.8722 161.199 30.5341 158.855 31.9291L159.878 33.6477ZM166.874 31.8722V33.8722C168.455 33.8722 169.89 34.1262 171.198 34.6154L171.899 32.7422L172.6 30.8689C170.806 30.1981 168.892 29.8722 166.874 29.8722V31.8722ZM171.899 32.7422L171.215 34.6218C172.512 35.0932 173.625 35.797 174.576 36.7382L175.983 35.3168L177.39 33.8953C176.021 32.5401 174.411 31.5276 172.582 30.8626L171.899 32.7422ZM175.983 35.3168L174.583 36.7453C175.52 37.663 176.282 38.8478 176.844 40.35L178.717 39.6491L180.59 38.9483C179.85 36.9703 178.79 35.2669 177.382 33.8882L175.983 35.3168ZM178.717 39.6491L176.846 40.3542C177.393 41.8076 177.694 43.5831 177.694 45.7216H179.694H181.694C181.694 43.2199 181.343 40.9472 180.589 38.9441L178.717 39.6491ZM179.694 45.7216H177.694V47.799H179.694H181.694V45.7216H179.694ZM179.694 47.799V45.799H156.665V47.799V49.799H179.694V47.799ZM156.665 47.799H158.665V43.1115H156.665H154.665V47.799H156.665ZM156.665 43.1115V45.1115H172.574V43.1115V41.1115H156.665V43.1115ZM172.574 43.1115H174.574C174.574 41.7237 174.269 40.4127 173.606 39.2356L171.863 40.2173L170.121 41.199C170.405 41.7028 170.574 42.3213 170.574 43.1115H172.574ZM171.863 40.2173L173.606 39.2356C172.953 38.0769 172.033 37.1568 170.874 36.504L169.893 38.2464L168.911 39.9889C169.433 40.2831 169.827 40.6769 170.121 41.199L171.863 40.2173ZM169.893 38.2464L170.903 36.5207C169.726 35.8308 168.402 35.5185 166.998 35.5185V37.5185V39.5185C167.797 39.5185 168.402 39.6914 168.882 39.9722L169.893 38.2464ZM166.998 37.5185V35.5185C165.528 35.5185 164.147 35.8635 162.915 36.6025L163.944 38.3175L164.973 40.0325C165.517 39.7061 166.172 39.5185 166.998 39.5185V37.5185ZM163.944 38.3175L162.922 36.5984C161.745 37.2985 160.809 38.2584 160.14 39.4532L161.885 40.4304L163.63 41.4076C163.955 40.8268 164.392 40.3781 164.967 40.0365L163.944 38.3175ZM161.885 40.4304L160.145 39.4432C159.469 40.6341 159.137 41.9466 159.121 43.3381L161.121 43.3601L163.121 43.3821C163.13 42.6192 163.306 41.9786 163.624 41.4176L161.885 40.4304ZM161.121 43.3601H159.121V47.8168H161.121H163.121V43.3601H161.121ZM161.121 47.8168H159.121C159.121 49.4103 159.415 50.8991 160.082 52.2176L161.867 51.3146L163.652 50.4116C163.324 49.7652 163.121 48.9221 163.121 47.8168H161.121ZM161.867 51.3146L160.091 52.2346C160.769 53.5429 161.749 54.5885 163.016 55.3197L164.015 53.5874L165.015 51.855C164.436 51.5209 163.983 51.0513 163.643 50.3946L161.867 51.3146ZM164.015 53.5874L163.016 55.3197C164.296 56.0581 165.749 56.3864 167.3 56.3864V54.3864V52.3864C166.318 52.3864 165.582 52.1819 165.015 51.855L164.015 53.5874ZM167.3 54.3864V56.3864C168.329 56.3864 169.319 56.2413 170.251 55.9254L169.608 54.0312L168.966 52.1371C168.501 52.2947 167.952 52.3864 167.3 52.3864V54.3864ZM169.608 54.0312L170.251 55.9254C171.203 55.6024 172.058 55.1027 172.781 54.4142L171.402 52.9659L170.022 51.5176C169.751 51.7761 169.41 51.9866 168.966 52.1371L169.608 54.0312ZM171.402 52.9659L172.781 54.4142C173.51 53.72 174.049 52.8818 174.408 51.9352L172.538 51.2259L170.668 50.5165C170.506 50.943 170.288 51.2648 170.023 51.5176L171.402 52.9659ZM172.538 51.2259L172.406 53.2215L179.402 53.6832L179.534 51.6875L179.666 49.6918L172.67 49.2302L172.538 51.2259ZM179.534 51.6875L177.577 51.2741C177.291 52.6294 176.714 53.7829 175.847 54.7719L177.35 56.0909L178.853 57.4099C180.187 55.8895 181.067 54.1073 181.491 52.1009L179.534 51.6875ZM177.35 56.0909L175.846 54.7729C174.988 55.7518 173.85 56.5522 172.375 57.1485L173.124 59.0028L173.873 60.8572C175.854 60.0567 177.534 58.9158 178.854 57.4089L177.35 56.0909ZM173.124 59.0028L172.381 57.1459C170.946 57.7199 169.224 58.0327 167.176 58.0327V60.0327V62.0327C169.626 62.0327 171.869 61.6589 173.867 60.8598L173.124 59.0028ZM206.322 40.0043L206.444 42.0005L208.585 41.8687L208.304 39.7424L206.322 40.0043ZM199.397 40.4304L197.436 40.8226L197.778 42.5338L199.52 42.4266L199.397 40.4304ZM198.633 38.8324L197.075 40.0864L197.083 40.0958L197.091 40.1052L198.633 38.8324ZM197.089 37.6783L196.235 39.4871L196.256 39.4967L196.276 39.5059L197.089 37.6783ZM191.868 37.9801L192.901 39.6929L192.91 39.6873L192.919 39.6817L191.868 37.9801ZM191.442 41.5845L190.135 43.0982L190.135 43.0982L191.442 41.5845ZM194.123 42.6676L193.703 44.6229L193.716 44.6257L193.728 44.6282L194.123 42.6676ZM199.059 43.6619L199.462 41.7028L199.454 41.7013L199.059 43.6619ZM204.99 46.2898L203.63 47.7563L203.63 47.7563L204.99 46.2898ZM205.363 55.7536L203.786 54.5228L203.78 54.5314L205.363 55.7536ZM201.066 58.9141L201.827 60.7634L201.833 60.7609L201.066 58.9141ZM186.169 57.7777L185.01 59.4076L185.02 59.4149L186.169 57.7777ZM182.422 51.5987L182.318 49.6015L180.137 49.7159L180.442 51.8778L182.422 51.5987ZM189.862 51.2081L191.822 50.8078L191.477 49.1206L189.757 49.2108L189.862 51.2081ZM191.496 53.7294L190.381 55.39L190.389 55.3953L190.397 55.4005L191.496 53.7294ZM198.012 53.8182L199.081 55.5086L199.087 55.5045L198.012 53.8182ZM199.255 51.8118L201.255 51.8408L201.255 51.809L201.254 51.7773L199.255 51.8118ZM198.385 50.125L197.143 51.6931L197.154 51.7011L197.164 51.709L198.385 50.125ZM195.757 49.0952L196.149 47.134L196.148 47.1337L195.757 49.0952ZM191.034 48.1541L190.642 50.1153L190.643 50.1156L191.034 48.1541ZM185.086 45.3842L183.659 46.7855L183.665 46.792L185.086 45.3842ZM184.571 35.8317L182.976 34.6245L182.969 34.6341L184.571 35.8317ZM188.601 32.902L187.867 31.0416L187.863 31.0433L188.601 32.902ZM202.841 34.0561L201.655 35.6665L201.66 35.6698L202.841 34.0561ZM206.322 40.0043L206.199 38.008L199.274 38.4342L199.397 40.4304L199.52 42.4266L206.444 42.0005L206.322 40.0043ZM199.397 40.4304L201.358 40.0382C201.174 39.1171 200.773 38.2831 200.176 37.5596L198.633 38.8324L197.091 40.1052C197.275 40.3286 197.383 40.56 197.436 40.8226L199.397 40.4304ZM198.633 38.8324L200.191 37.5784C199.578 36.8162 198.795 36.2479 197.901 35.8506L197.089 37.6783L196.276 39.5059C196.661 39.6768 196.908 39.8779 197.075 40.0864L198.633 38.8324ZM197.089 37.6783L197.942 35.8694C196.987 35.4191 195.929 35.2344 194.834 35.2344V37.2344V39.2344C195.49 39.2344 195.935 39.3456 196.235 39.4871L197.089 37.6783ZM194.834 37.2344V35.2344C193.379 35.2344 192.006 35.5446 190.817 36.2785L191.868 37.9801L192.919 39.6817C193.341 39.4214 193.945 39.2344 194.834 39.2344V37.2344ZM191.868 37.9801L190.836 36.2674C189.538 37.0499 188.661 38.2986 188.661 39.9332H190.661H192.661C192.661 39.9134 192.662 39.9 192.663 39.8921C192.664 39.8843 192.665 39.8808 192.665 39.8806C192.665 39.8805 192.665 39.8817 192.664 39.8835C192.663 39.8852 192.663 39.8856 192.664 39.884C192.664 39.8837 192.71 39.8083 192.901 39.6929L191.868 37.9801ZM190.661 39.9332H188.661C188.661 41.2022 189.203 42.2931 190.135 43.0982L191.442 41.5845L192.75 40.0709C192.673 40.0044 192.661 39.9715 192.664 39.979C192.665 39.9805 192.665 39.9816 192.664 39.979C192.664 39.976 192.661 39.9619 192.661 39.9332H190.661ZM191.442 41.5845L190.135 43.0982C191.048 43.8862 192.351 44.3322 193.703 44.6229L194.123 42.6676L194.544 40.7123C193.363 40.4585 192.879 40.1825 192.75 40.0709L191.442 41.5845ZM194.123 42.6676L193.728 44.6282L198.665 45.6225L199.059 43.6619L199.454 41.7013L194.518 40.707L194.123 42.6676ZM199.059 43.6619L198.657 45.621C201.124 46.1276 202.702 46.8954 203.63 47.7563L204.99 46.2898L206.35 44.8232C204.674 43.2694 202.298 42.2852 199.462 41.7028L199.059 43.6619ZM204.99 46.2898L203.63 47.7563C204.478 48.5427 204.943 49.5741 204.943 51.0483H206.943H208.943C208.943 48.5926 208.106 46.4517 206.35 44.8232L204.99 46.2898ZM206.943 51.0483H204.943C204.943 52.4108 204.553 53.5412 203.786 54.5228L205.363 55.7536L206.939 56.9843C208.28 55.267 208.943 53.2606 208.943 51.0483H206.943ZM205.363 55.7536L203.78 54.5314C202.982 55.5642 201.851 56.4219 200.298 57.0672L201.066 58.9141L201.833 60.7609C203.927 59.891 205.66 58.6418 206.946 56.9757L205.363 55.7536ZM201.066 58.9141L200.304 57.0647C198.78 57.6925 196.958 58.0327 194.798 58.0327V60.0327V62.0327C197.374 62.0327 199.73 61.6271 201.827 60.7634L201.066 58.9141ZM194.798 60.0327V58.0327C191.447 58.0327 189.018 57.3333 187.318 56.1405L186.169 57.7777L185.02 59.4149C187.605 61.2287 190.929 62.0327 194.798 62.0327V60.0327ZM186.169 57.7777L187.328 56.1478C185.648 54.9531 184.694 53.3835 184.403 51.3197L182.422 51.5987L180.442 51.8778C180.885 55.0223 182.428 57.572 185.01 59.4076L186.169 57.7777ZM182.422 51.5987L182.527 53.596L189.967 53.2053L189.862 51.2081L189.757 49.2108L182.318 49.6015L182.422 51.5987ZM189.862 51.2081L187.903 51.6084C188.223 53.1789 189.044 54.4924 190.381 55.39L191.496 53.7294L192.61 52.0688C192.219 51.8063 191.951 51.439 191.822 50.8078L189.862 51.2081ZM191.496 53.7294L190.397 55.4005C191.673 56.2397 193.193 56.5817 194.816 56.5817V54.5817V52.5817C193.74 52.5817 193.046 52.3554 192.594 52.0583L191.496 53.7294ZM194.816 54.5817V56.5817C196.378 56.5817 197.854 56.2844 199.081 55.5086L198.012 53.8182L196.943 52.1278C196.56 52.3699 195.906 52.5817 194.816 52.5817V54.5817ZM198.012 53.8182L199.087 55.5045C200.349 54.6996 201.231 53.4631 201.255 51.8408L199.255 51.8118L197.255 51.7828C197.254 51.8203 197.25 51.8389 197.248 51.8452C197.246 51.851 197.244 51.8589 197.235 51.8727C197.218 51.8998 197.149 51.9963 196.937 52.1319L198.012 53.8182ZM199.255 51.8118L201.254 51.7773C201.232 50.4519 200.631 49.331 199.606 48.541L198.385 50.125L197.164 51.709C197.207 51.7423 197.23 51.7666 197.241 51.7791C197.251 51.7911 197.253 51.7952 197.251 51.792C197.249 51.7886 197.249 51.7866 197.25 51.7901C197.251 51.7941 197.254 51.8113 197.255 51.8463L199.255 51.8118ZM198.385 50.125L199.626 48.5569C198.697 47.8214 197.462 47.3965 196.149 47.134L195.757 49.0952L195.365 51.0563C196.42 51.2673 196.936 51.529 197.143 51.6931L198.385 50.125ZM195.757 49.0952L196.148 47.1337L191.425 46.1927L191.034 48.1541L190.643 50.1156L195.366 51.0566L195.757 49.0952ZM191.034 48.1541L191.426 46.193C188.98 45.7037 187.426 44.9041 186.506 43.9764L185.086 45.3842L183.665 46.792C185.35 48.4923 187.761 49.5392 190.642 50.1153L191.034 48.1541ZM185.086 45.3842L186.513 43.9829C185.63 43.0841 185.15 41.9318 185.15 40.3594H183.15H181.15C181.15 42.8589 181.961 45.0565 183.659 46.7855L185.086 45.3842ZM183.15 40.3594H185.15C185.15 38.9902 185.512 37.9128 186.173 37.0293L184.571 35.8317L182.969 34.6341C181.736 36.2837 181.15 38.2248 181.15 40.3594H183.15ZM184.571 35.8317L186.165 37.0388C186.869 36.1101 187.892 35.3357 189.34 34.7607L188.601 32.902L187.863 31.0433C185.854 31.8414 184.191 33.0201 182.976 34.6245L184.571 35.8317ZM188.601 32.902L189.335 34.7624C190.792 34.1877 192.569 33.8722 194.709 33.8722V31.8722V29.8722C192.186 29.8722 189.891 30.2431 187.867 31.0416L188.601 32.902ZM194.709 31.8722V33.8722C197.894 33.8722 200.136 34.5475 201.655 35.6665L202.841 34.0561L204.028 32.4458C201.593 30.6528 198.413 29.8722 194.709 29.8722V31.8722ZM202.841 34.0561L201.66 35.6698C203.195 36.7937 204.077 38.2813 204.339 40.2661L206.322 40.0043L208.304 39.7424C207.904 36.7083 206.465 34.2304 204.023 32.4424L202.841 34.0561ZM225.212 32.2273H227.212V30.2273H225.212V32.2273ZM225.212 37.9091V39.9091H227.212V37.9091H225.212ZM208.788 37.9091H206.788V39.9091H208.788V37.9091ZM208.788 32.2273V30.2273H206.788V32.2273H208.788ZM212.517 25.6932V23.6932H210.517V25.6932H212.517ZM220.081 25.6932H222.081V23.6932H220.081V25.6932ZM220.401 52.7528L218.645 53.7105L218.651 53.722L218.657 53.7334L220.401 52.7528ZM221.288 53.5518L220.536 55.4048L220.545 55.4088L220.555 55.4127L221.288 53.5518ZM223.703 53.6939L224.032 55.6667L224.064 55.6614L224.095 55.6551L223.703 53.6939ZM224.52 53.5341L226.477 53.1205L226.072 51.2081L224.151 51.5683L224.52 53.5341ZM225.71 59.1626L226.306 61.0716L228.042 60.529L227.666 58.7491L225.71 59.1626ZM224.112 59.571L223.674 57.6194L223.658 57.623L223.642 57.6269L224.112 59.571ZM221.608 59.8729L221.536 57.8742L221.53 57.8744L221.608 59.8729ZM216.814 59.1449L216.057 60.9962L216.063 60.9985L216.814 59.1449ZM213.636 56.5526L215.315 55.4668L215.315 55.4668L213.636 56.5526ZM212.517 52.1136L214.517 52.1269V52.1136H212.517ZM225.212 32.2273H223.212V37.9091H225.212H227.212V32.2273H225.212ZM225.212 37.9091V35.9091H208.788V37.9091V39.9091H225.212V37.9091ZM208.788 37.9091H210.788V32.2273H208.788H206.788V37.9091H208.788ZM208.788 32.2273V34.2273H225.212V32.2273V30.2273H208.788V32.2273ZM212.517 25.6932V27.6932H220.081V25.6932V23.6932H212.517V25.6932ZM220.081 25.6932H218.081V51.1193H220.081H222.081V25.6932H220.081ZM220.081 51.1193H218.081C218.081 51.9798 218.205 52.9049 218.645 53.7105L220.401 52.7528L222.156 51.7951C222.168 51.8173 222.147 51.7864 222.124 51.6675C222.101 51.5492 222.081 51.371 222.081 51.1193H220.081ZM220.401 52.7528L218.657 53.7334C219.077 54.48 219.71 55.0694 220.536 55.4048L221.288 53.5518L222.041 51.6989C222.049 51.7022 222.062 51.7081 222.077 51.7177C222.092 51.7273 222.107 51.7384 222.12 51.7501C222.148 51.7752 222.153 51.7894 222.144 51.7723L220.401 52.7528ZM221.288 53.5518L220.555 55.4127C221.223 55.6758 221.93 55.7827 222.638 55.7827V53.7827V51.7827C222.328 51.7827 222.135 51.7357 222.021 51.691L221.288 53.5518ZM222.638 53.7827V55.7827C223.105 55.7827 223.57 55.7437 224.032 55.6667L223.703 53.6939L223.374 51.7211C223.126 51.7624 222.881 51.7827 222.638 51.7827V53.7827ZM223.703 53.6939L224.095 55.6551C224.448 55.5845 224.711 55.5331 224.888 55.4998L224.52 53.5341L224.151 51.5683C223.95 51.6061 223.668 51.6612 223.311 51.7327L223.703 53.6939ZM224.52 53.5341L222.563 53.9477L223.753 59.5762L225.71 59.1626L227.666 58.7491L226.477 53.1205L224.52 53.5341ZM225.71 59.1626L225.113 57.2537C224.812 57.3478 224.341 57.4699 223.674 57.6194L224.112 59.571L224.549 61.5226C225.255 61.3643 225.85 61.2142 226.306 61.0716L225.71 59.1626ZM224.112 59.571L223.642 57.6269C223.125 57.7516 222.432 57.8418 221.536 57.8742L221.608 59.8729L221.68 61.8716C222.749 61.8329 223.725 61.7219 224.581 61.5152L224.112 59.571ZM221.608 59.8729L221.53 57.8744C219.927 57.9369 218.622 57.7194 217.565 57.2913L216.814 59.1449L216.063 60.9985C217.752 61.683 219.643 61.9509 221.686 61.8714L221.608 59.8729ZM216.814 59.1449L217.571 57.2935C216.566 56.8831 215.838 56.276 215.315 55.4668L213.636 56.5526L211.956 57.6384C212.948 59.1729 214.339 60.2939 216.057 60.9962L216.814 59.1449ZM213.636 56.5526L215.315 55.4668C214.821 54.7028 214.507 53.6332 214.517 52.1269L212.517 52.1136L210.517 52.1004C210.503 54.1689 210.935 56.0585 211.956 57.6384L213.636 56.5526ZM212.517 52.1136H214.517V25.6932H212.517H210.517V52.1136H212.517Z" fill="#FDFDFD" mask="url(#path-1-outside-1_63_1254)"/>
</svg>
